<svg version="1.1" id="Layer_1" xmlns="http://www.w3.org/2000/svg" xmlns:xlink="http://www.w3.org/1999/xlink" x="0px" y="0px"
	 width="100%" viewBox="0 0 500 500" enable-background="new 0 0 500 500" xml:space="preserve">
<path fill="#010101" opacity="1.000000" stroke="none" 
	d="
M501.000000,241.000000 
	C501.000000,327.999969 501.000000,414.499969 501.000000,500.999939 
	C334.333405,500.999969 167.666794,500.999969 1.000136,501.000000 
	C1.000091,334.333435 1.000091,167.666870 1.000045,1.000225 
	C167.666519,1.000150 334.333038,1.000150 500.999786,1.000075 
	C501.000000,80.833336 501.000000,160.666672 501.000000,241.000000 
M414.928162,333.227844 
	C415.262756,329.037323 417.332428,328.179077 421.000275,329.894104 
	C423.430511,331.030396 425.989410,331.891510 428.490723,332.875793 
	C428.696350,332.361359 428.901978,331.846924 429.107605,331.332458 
	C426.977112,330.253479 424.879608,329.102448 422.709869,328.109100 
	C416.353302,325.198853 413.465881,326.926392 412.135315,333.960785 
	C409.602875,333.056152 407.070435,332.151550 404.537994,331.246918 
	C404.344208,331.770142 404.150452,332.293365 403.956665,332.816589 
	C410.547424,335.980438 417.138184,339.144287 423.728943,342.308105 
	C423.931396,341.899719 424.133881,341.491302 424.336334,341.082886 
	C421.183655,338.723877 418.030945,336.364868 414.928162,333.227844 
M80.309494,317.732971 
	C82.436119,321.558502 80.262398,323.033417 76.983032,324.177155 
	C74.769150,324.949341 72.703308,326.145966 70.571243,327.152710 
	C70.846878,327.686768 71.122505,328.220795 71.398140,328.754852 
	C73.983185,327.795258 76.620277,326.954620 79.142616,325.851654 
	C84.631371,323.451447 85.046059,319.495209 80.442329,314.670837 
	C83.043106,313.407471 85.643883,312.144104 88.244659,310.880707 
	C87.978752,310.300720 87.712845,309.720734 87.446938,309.140717 
	C80.571320,311.830902 73.695694,314.521057 66.820068,317.211212 
	C66.996666,317.798431 67.173256,318.385620 67.349846,318.972839 
	C69.054558,318.515625 70.735023,317.884277 72.469765,317.642761 
	C74.953926,317.296906 77.477730,317.235840 80.309494,317.732971 
M112.438049,203.017014 
	C112.216934,203.817596 112.002716,204.620178 111.773705,205.418488 
	C94.835167,264.466858 106.914444,316.710846 152.059494,358.586639 
	C194.375458,397.838226 245.325577,408.266205 299.485870,388.811951 
	C359.503906,367.253632 392.479126,322.543854 396.952393,258.628326 
	C400.070496,214.075928 384.483826,175.580292 352.056915,145.115982 
	C311.951385,107.437790 264.075317,95.683708 211.145859,110.307358 
	C162.864853,123.646729 130.384308,155.398605 112.438049,203.017014 
M343.258423,88.924248 
	C348.802734,93.546249 354.347015,98.168259 360.195221,103.043610 
	C363.777374,97.651245 366.965698,92.851723 370.331024,87.785759 
	C368.610992,86.597275 367.159210,85.557762 365.669800,84.575226 
	C364.182953,83.594376 362.658478,82.670570 360.924316,81.579445 
	C359.862396,83.136200 358.984375,84.423363 358.022858,85.832939 
	C359.564545,87.076096 360.808228,88.078957 362.013702,89.051010 
	C360.510590,93.304398 357.324921,92.841629 354.548523,91.822136 
	C350.714355,90.414223 348.217438,87.485733 348.229126,83.151878 
	C348.240265,79.046661 352.116425,74.162949 355.963501,73.019768 
	C360.764587,71.593094 364.073395,73.603996 368.740601,80.836082 
	C370.263824,80.414459 371.813202,79.985596 373.341461,79.562576 
	C371.395935,70.417709 363.252930,65.079300 354.745880,67.113670 
	C346.019958,69.200386 340.626373,78.889793 343.258423,88.924248 
M69.341301,185.506683 
	C81.092995,187.307007 90.245567,179.114304 88.427330,168.422272 
	C87.154076,160.934982 79.949409,155.086380 72.075485,155.148163 
	C64.490814,155.207672 58.629017,160.216797 57.155697,167.897675 
	C55.671913,175.633102 59.862030,181.981293 69.341301,185.506683 
M135.108276,74.982620 
	C135.105988,76.308937 134.895432,77.674446 135.136383,78.954994 
	C136.383484,85.582466 139.738739,90.684799 146.353912,92.925209 
	C152.112289,94.875435 158.986938,92.630585 162.901932,87.883698 
	C166.696548,83.282761 167.285614,76.781845 164.163315,71.101151 
	C160.994476,65.335754 156.383606,61.444290 149.404587,62.101810 
	C142.021576,62.797398 137.457611,67.207245 135.108276,74.982620 
M97.016884,123.844406 
	C91.244682,116.504395 85.552521,116.560616 80.261688,124.049797 
	C78.375465,126.719772 76.587372,129.459061 74.641029,132.334290 
	C83.197083,138.214249 91.366058,143.828186 99.866722,149.670059 
	C101.048874,148.051987 102.074059,146.648773 103.269638,145.012314 
	C99.814163,142.435364 96.602814,140.040466 93.391464,137.645569 
	C93.567772,136.983612 93.744080,136.321655 93.920387,135.659683 
	C97.272484,136.076263 100.688812,136.216751 103.960754,136.977921 
	C108.238487,137.973068 110.446815,136.456619 111.319504,132.224091 
	C106.746017,131.343079 102.373238,130.500732 98.228218,129.702255 
	C97.891853,127.797661 97.606773,126.183517 97.016884,123.844406 
M389.910156,132.757690 
	C393.398590,130.791245 396.886993,128.824783 401.129639,126.433174 
	C401.129639,128.079391 401.480865,129.447815 401.055878,130.503906 
	C400.195282,132.642563 399.139832,134.782196 397.758331,136.615082 
	C395.046051,140.213409 395.904419,142.901703 399.600494,145.455750 
	C401.901428,141.387497 404.164520,137.386169 406.458405,133.330383 
	C411.449707,135.851242 415.552460,134.632614 418.615448,130.611725 
	C421.738281,126.512238 420.224640,122.448906 417.546417,118.697731 
	C415.630493,116.014244 413.634796,113.387703 411.517761,110.523415 
	C403.148651,116.665573 395.048676,122.610237 386.796387,128.666656 
	C387.854309,130.122955 388.626526,131.185989 389.910156,132.757690 
M188.031219,76.454414 
	C188.568588,75.239525 189.697952,73.928482 189.519531,72.829849 
	C189.153732,70.577560 187.980453,68.468414 187.366165,66.237938 
	C187.153336,65.465195 187.445724,63.850769 187.794876,63.762878 
	C188.695694,63.536110 190.051270,63.606888 190.698532,64.167191 
	C192.575592,65.792076 194.388962,67.570076 195.871246,69.554016 
	C198.528366,73.110466 201.344147,73.083099 204.716904,70.403984 
	C201.548553,66.994476 198.420349,63.628162 195.236557,60.202045 
	C198.987106,56.017113 199.108597,51.745308 196.216385,47.642509 
	C193.256760,43.444099 188.997284,43.475414 184.575409,45.025589 
	C181.471313,46.113789 178.380783,47.240681 175.066544,48.428288 
	C178.119843,57.514427 181.003098,66.315002 184.123383,75.030724 
	C184.427368,75.879852 186.193542,76.205513 188.031219,76.454414 
M456.407959,217.930344 
	C455.819336,213.536804 455.230743,209.143265 454.593689,204.388031 
	C444.189362,205.713608 434.218170,206.984009 424.061584,208.278015 
	C425.011230,215.422318 425.883118,221.981445 426.803131,228.902924 
	C428.751495,228.639328 430.338470,228.424606 432.251068,228.165848 
	C431.716553,223.149185 431.215942,218.450684 430.682037,213.439484 
	C433.188354,213.178345 435.094452,212.979752 437.123871,212.768295 
	C437.852631,217.106110 438.498260,220.949036 439.174896,224.976517 
	C441.170929,224.499634 442.585724,224.161621 444.281097,223.756592 
	C443.844452,219.719223 443.424835,215.839600 442.987488,211.796112 
	C445.541229,211.474884 447.593292,211.216751 449.698700,210.951904 
	C450.403076,216.026855 451.037750,220.599518 451.711670,225.454880 
	C453.672485,225.272522 455.269989,225.123962 457.204712,224.944031 
	C456.985046,222.729553 456.790070,220.764206 456.407959,217.930344 
M304.363525,41.126881 
	C299.251617,39.994991 294.139709,38.863098 288.785980,37.677658 
	C286.392151,47.865204 284.129822,57.493061 281.787384,67.461891 
	C288.717834,69.075699 295.247833,70.596260 302.065704,72.183846 
	C302.486145,70.209084 302.816650,68.656609 303.198303,66.863976 
	C298.242065,65.643120 293.658844,64.514145 288.824097,63.323215 
	C289.444672,60.888065 289.953644,58.890854 290.493225,56.773575 
	C294.707916,57.637863 298.532318,58.422127 302.523590,59.240601 
	C302.930481,57.302467 303.225281,55.898113 303.592438,54.149288 
	C299.576935,53.099735 295.805695,52.114017 291.710999,51.043758 
	C292.313690,48.639027 292.818939,46.623135 293.359161,44.467773 
	C298.266510,45.614838 302.889923,46.695526 307.678650,47.814857 
	C308.194183,45.901566 308.614227,44.342625 309.091736,42.570354 
	C307.620819,42.098236 306.389069,41.702885 304.363525,41.126881 
M46.093075,214.056839 
	C48.171101,221.882690 52.530445,226.044861 59.986141,226.890350 
	C66.461967,227.624710 71.780907,225.450195 75.287796,219.741135 
	C78.816200,213.997070 78.381355,207.848969 74.064934,202.163574 
	C72.669991,203.268387 71.279587,204.369614 69.965836,205.410126 
	C72.702415,212.086594 72.009460,216.167496 67.840858,219.022690 
	C63.799328,221.790863 57.881695,221.345734 54.530270,218.021469 
	C50.692711,214.214996 50.978527,209.863098 55.635017,202.835190 
	C54.676731,201.595062 53.676113,200.300156 52.546185,198.837906 
	C47.438404,202.487000 45.659107,207.352081 46.093075,214.056839 
M106.439507,106.060684 
	C111.557121,110.948441 116.674736,115.836205 121.413116,120.361763 
	C122.644333,119.499229 123.995392,118.552727 126.378876,116.882950 
	C122.642128,114.088806 119.469124,111.716194 116.325928,109.365875 
	C118.556732,106.904228 119.984444,105.500175 121.213943,103.939926 
	C124.910164,99.249420 124.718826,94.836182 120.757874,91.070816 
	C117.174782,87.664658 112.462128,87.600471 108.184181,91.250664 
	C105.300972,93.710793 102.744003,96.553276 99.286308,99.970711 
	C101.623894,101.934013 103.782394,103.746910 106.439507,106.060684 
M230.415634,46.018505 
	C228.453796,42.435558 226.491943,38.852612 223.918503,34.152706 
	C221.010010,46.053387 218.381363,56.809032 215.752701,67.564682 
	C216.200363,67.954575 216.648010,68.344467 217.095657,68.734352 
	C218.926285,67.422905 220.586166,65.534966 222.626251,64.930733 
	C225.957016,63.944202 229.538116,63.409355 233.008850,63.431431 
	C235.211304,63.445442 237.405167,64.813141 239.602875,65.573769 
	C239.815109,65.063858 240.027344,64.553947 240.239578,64.044037 
	C237.103409,58.239719 233.967255,52.435406 230.415634,46.018505 
M269.852936,35.645283 
	C263.992004,35.194920 258.131042,34.744556 252.025223,34.275375 
	C252.025223,36.362755 252.025223,37.908539 252.025223,39.480721 
	C254.117783,39.791756 255.884094,40.054298 257.708313,40.325447 
	C257.341766,48.579140 256.984009,56.634552 256.618164,64.872475 
	C258.755615,64.872475 260.471619,64.872475 262.390198,64.872475 
	C262.855774,56.561619 263.305634,48.531097 263.751434,40.572742 
	C266.216614,40.450211 267.978271,40.362652 269.831726,40.270527 
	C269.917480,38.831547 269.986084,37.680786 269.852936,35.645283 
M434.253784,151.568161 
	C438.599915,149.098999 434.286713,147.425751 434.036011,145.012421 
	C424.570221,149.577393 415.544617,153.930084 406.273010,158.401413 
	C408.828918,163.748428 411.146790,168.597519 413.602997,173.735916 
	C415.548187,172.666016 416.942810,171.898941 418.556671,171.011276 
	C417.024017,167.632446 415.622009,164.541672 414.131226,161.255188 
	C420.740540,158.077850 427.157349,154.993088 434.253784,151.568161 
M439.244934,187.651352 
	C442.672821,186.570450 446.100677,185.489548 449.798401,184.323547 
	C449.177368,182.251740 448.680206,180.593185 448.072845,178.566971 
	C438.049316,181.628174 428.473022,184.552811 418.543732,187.585236 
	C419.271942,189.739258 419.827759,191.383408 420.414581,193.119232 
	C426.703278,191.295120 432.589294,189.587799 439.244934,187.651352 
M381.715240,103.212631 
	C378.137421,106.178871 374.559631,109.145111 370.802216,112.260246 
	C373.547821,114.807541 374.844879,116.010910 375.981567,117.065514 
	C383.049561,110.100426 389.812958,103.443260 396.557129,96.766670 
	C396.897675,96.429512 397.071716,95.924179 397.720886,94.822121 
	C396.499908,93.752129 395.159210,92.577232 393.696594,91.295502 
	C389.727417,95.225311 385.958649,98.956703 381.715240,103.212631 
M292.568512,443.072845 
	C296.375732,440.218018 296.261322,436.531982 294.304169,432.855988 
	C290.348145,425.425873 284.993774,431.336090 279.889832,431.383179 
	C281.372803,438.196838 282.789612,444.706421 284.206421,451.216003 
	C284.818573,451.082916 285.430756,450.949829 286.042938,450.816742 
	C285.718079,448.636536 285.393188,446.456329 285.093933,444.448029 
	C287.525391,444.093506 289.733185,443.771606 292.568512,443.072845 
M115.809052,373.329590 
	C116.973396,370.959320 118.137741,368.589050 119.302086,366.218781 
	C118.938431,365.821869 118.574783,365.424927 118.211128,365.028015 
	C111.386330,367.614502 104.561531,370.201019 97.736725,372.787537 
	C97.883514,373.334229 98.030304,373.880920 98.177094,374.427612 
	C100.341255,373.973663 102.505417,373.519745 104.853317,373.027252 
	C106.529327,375.006195 108.217628,376.999634 109.673233,378.718353 
	C108.791275,381.159607 108.053871,383.200745 107.316467,385.241882 
	C108.568031,385.452332 108.892570,385.357849 109.013550,385.146698 
	C111.149986,381.417725 113.261612,377.674500 115.809052,373.329590 
M226.268127,440.971680 
	C223.212097,442.566406 220.230240,445.529602 216.830566,441.591187 
	C214.641037,439.054626 214.896545,432.829498 217.281052,429.352264 
	C221.373367,423.384644 224.942947,427.894226 228.847580,430.822144 
	C227.250458,423.979340 220.849228,422.135193 216.291214,426.361694 
	C212.732361,429.661713 211.261856,438.262665 214.233337,442.089539 
	C215.670975,443.941010 218.601593,445.755402 220.738190,445.626740 
	C222.879303,445.497742 224.873398,442.928040 226.268127,440.971680 
M400.003845,359.571533 
	C402.553864,360.677399 405.012238,362.289490 407.675201,362.771606 
	C411.759369,363.510986 414.299194,360.640106 415.458221,357.248993 
	C416.098999,355.374115 415.143097,352.953552 414.903778,350.749390 
	C412.971039,354.418549 412.150055,358.691833 409.860687,359.731476 
	C405.703644,361.619110 401.816010,358.500275 399.264893,355.163239 
	C394.690002,349.178955 400.418915,347.049011 404.606079,344.420013 
	C399.898773,343.419891 397.346741,345.365204 395.791168,348.796753 
	C393.739075,353.323608 396.330017,356.330963 400.003845,359.571533 
M359.506958,414.492432 
	C357.207367,410.546082 354.907776,406.599731 352.674957,402.768036 
	C351.001221,403.659119 349.837860,404.648407 348.531830,404.901611 
	C345.168396,405.553558 343.150635,407.367920 342.846741,410.763763 
	C342.504364,414.589569 343.886749,418.095520 347.670715,418.922729 
	C350.110229,419.456055 353.050964,418.061218 355.673096,417.232880 
	C356.891510,416.847992 357.886261,415.754852 359.506958,414.492432 
M84.184769,335.463409 
	C82.161057,337.852966 79.168663,339.985840 78.444145,342.719696 
	C77.936119,344.636566 80.521698,347.373352 81.725723,349.743958 
	C82.283798,349.501465 82.841881,349.258942 83.399963,349.016449 
	C81.907242,345.759369 77.912376,342.552460 83.024094,338.814178 
	C84.953346,342.146637 86.800385,345.337067 88.685318,348.592957 
	C92.742226,346.690857 93.892372,343.689514 92.974480,340.164795 
	C91.943466,336.205719 88.911209,334.727997 84.184769,335.463409 
M381.822205,394.014862 
	C388.449951,393.533752 391.403320,389.921051 389.108368,385.102051 
	C386.062073,392.224030 384.280151,393.187622 379.351440,389.390472 
	C382.071075,386.906982 384.708588,384.498505 387.339539,382.096008 
	C382.915710,378.214996 378.471863,378.537476 375.970764,382.730804 
	C373.670135,386.588104 375.432404,390.458099 381.822205,394.014862 
M162.176300,414.505890 
	C161.344849,415.725311 160.286621,416.849213 159.725113,418.182343 
	C158.133286,421.961670 159.222076,425.066589 162.720032,427.136230 
	C166.122299,429.149292 170.549408,428.234467 172.026596,424.488098 
	C173.035004,421.930634 173.191071,418.154907 171.991058,415.814636 
	C170.170731,412.264679 166.369827,412.188507 162.176300,414.505890 
M252.271057,440.506134 
	C251.470367,435.130402 249.109253,432.611572 245.012741,432.762848 
	C241.212051,432.903198 238.312546,435.908478 238.106247,439.921295 
	C237.907501,443.787079 240.645508,447.487701 244.079132,447.994110 
	C248.162735,448.596313 250.986404,446.251373 252.271057,440.506134 
M78.193962,288.362885 
	C78.533669,289.902405 78.873375,291.441956 79.232391,293.068970 
	C72.876015,294.748627 67.066681,296.283691 61.257351,297.818787 
	C61.437237,298.537170 61.617126,299.255554 61.797012,299.973938 
	C67.812874,298.602570 73.828735,297.231201 79.765808,295.877808 
	C80.639191,298.168060 81.328194,299.974792 82.017197,301.781555 
	C82.527840,301.615356 83.038490,301.449188 83.549133,301.282990 
	C82.376335,296.593292 81.210655,291.901672 79.952614,287.234955 
	C79.936287,287.174438 78.744835,287.430725 78.193962,288.362885 
M313.945435,437.752075 
	C317.731201,436.359283 319.571777,433.653687 318.868774,429.661957 
	C318.252960,426.165131 316.395172,423.501343 312.540894,422.979218 
	C308.276184,422.401550 305.038818,425.070801 304.710114,429.318695 
	C304.311340,434.472107 307.283569,437.489807 313.945435,437.752075 
M438.446899,297.882446 
	C436.211365,301.111786 433.184174,301.342407 430.238312,299.388153 
	C425.681274,296.365051 428.959564,293.051880 431.209686,289.297913 
	C426.797913,290.467072 425.711914,292.865814 425.941162,296.059631 
	C426.240875,300.236084 429.127411,302.210510 432.764435,302.799835 
	C436.402435,303.389313 439.475220,301.737854 440.493439,298.101654 
	C441.036011,296.164001 440.274567,293.861206 440.101715,291.723236 
	C439.578766,291.820923 439.055786,291.918640 438.532806,292.016327 
	C438.621613,293.724854 438.710388,295.433350 438.446899,297.882446 
M187.122681,425.300873 
	C188.377731,424.975464 189.632797,424.650055 190.379944,424.456329 
	C189.986374,422.641022 188.881454,420.632172 189.461578,419.450684 
	C190.212418,417.921539 192.307632,417.052521 194.082108,415.703064 
	C190.794632,414.121368 189.178467,415.502106 187.146393,418.015350 
	C183.871124,422.066071 184.845444,427.378113 182.292130,431.545715 
	C181.713379,432.490356 181.759216,433.817719 181.517563,434.968903 
	C181.994583,435.150299 182.471603,435.331665 182.948639,435.513062 
	C184.263351,432.377106 185.578064,429.241119 187.122681,425.300873 
M143.080170,399.643066 
	C143.190231,397.143341 143.300293,394.643646 143.411743,392.112579 
	C141.406799,393.163574 139.456329,394.186005 138.703995,394.580353 
	C137.232773,397.387787 136.311676,399.340149 135.213531,401.187225 
	C134.067780,403.114349 132.751450,404.940033 131.509689,406.810028 
	C131.962463,407.129822 132.415222,407.449585 132.867996,407.769379 
	C134.791107,405.374176 136.573029,402.840607 138.712677,400.657654 
	C139.478073,399.876770 141.108139,399.943451 143.080170,399.643066 
M363.246338,393.319977 
	C362.194611,392.344940 361.142853,391.369934 359.149200,389.521667 
	C359.952393,393.113678 360.445129,395.317291 360.955627,397.600311 
	C366.605133,396.967255 366.513062,404.864349 371.661041,405.881531 
	C371.726044,400.516357 363.059814,399.058624 366.866547,392.260254 
	C365.631714,392.666779 364.813721,392.936096 363.246338,393.319977 
M118.527443,391.244110 
	C117.894104,392.305176 117.260773,393.366211 116.627434,394.427277 
	C127.192642,388.736481 127.192642,388.736481 132.830139,389.144684 
	C130.169327,387.204132 128.079453,385.679993 125.521889,383.814758 
	C123.521088,385.939331 121.274414,388.324951 118.527443,391.244110 
M262.410065,434.393616 
	C262.882629,438.630463 263.355194,442.867340 263.827759,447.104187 
	C264.316101,447.025635 264.804443,446.947083 265.292786,446.868530 
	C265.527985,443.203674 265.978088,439.529877 265.826569,435.881073 
	C265.794220,435.102386 263.575989,434.414551 262.410065,434.393616 
M329.030975,419.582245 
	C329.151367,418.532349 329.271759,417.482422 329.326294,417.006805 
	C328.417877,417.059479 327.129120,417.134155 325.198792,417.246063 
	C327.388031,421.842377 329.402924,426.072632 331.417816,430.302917 
	C332.063446,430.000977 332.709106,429.699005 333.354767,429.397064 
	C331.920380,426.376160 330.485992,423.355255 329.030975,419.582245 
M426.000427,315.426453 
	C428.806549,316.369751 431.612701,317.313049 434.418823,318.256348 
	C434.621979,317.548676 434.825134,316.841034 435.028290,316.133362 
	C430.512787,314.601593 425.997314,313.069794 421.481842,311.538025 
	C421.244019,312.157745 421.006226,312.777466 420.768402,313.397186 
	C422.274353,313.987000 423.780304,314.576813 426.000427,315.426453 
M64.905594,273.196198 
	C63.853588,271.799103 62.891273,270.306793 61.636623,269.124817 
	C61.478931,268.976227 59.133785,270.333099 58.956390,271.222656 
	C58.719749,272.409302 59.474220,274.856934 60.048321,274.933960 
	C61.518631,275.131195 63.124596,274.317108 64.905594,273.196198 
M436.842102,270.867950 
	C437.722656,272.244781 438.416748,273.837128 439.601471,274.862518 
	C439.941345,275.156708 442.385193,274.018036 442.639099,273.169647 
	C442.983124,272.020142 442.351044,269.482330 441.776764,269.369019 
	C440.318939,269.081390 438.660156,269.812073 436.842102,270.867950 
z"/>
<path fill="#FEC504" opacity="1.000000" stroke="none" 
	d="
M112.620445,202.667542 
	C130.384308,155.398605 162.864853,123.646729 211.145859,110.307358 
	C264.075317,95.683708 311.951385,107.437790 352.056915,145.115982 
	C384.483826,175.580292 400.070496,214.075928 396.952393,258.628326 
	C392.479126,322.543854 359.503906,367.253632 299.485870,388.811951 
	C245.325577,408.266205 194.375458,397.838226 152.059494,358.586639 
	C106.914444,316.710846 94.835167,264.466858 111.773705,205.418488 
	C112.002716,204.620178 112.216934,203.817596 112.620445,202.667542 
M214.622559,192.122574 
	C193.657059,213.092163 172.683380,234.053589 151.731979,255.037262 
	C146.607162,260.169983 146.626526,261.787506 151.797424,266.961884 
	C176.761963,291.943146 201.737488,316.913391 226.714355,341.882355 
	C235.771027,350.936157 235.808609,350.960541 244.970779,341.807129 
	C276.673096,310.135071 308.355103,278.442688 340.036194,246.749390 
	C344.789093,241.994644 344.740570,240.125687 339.850403,235.213165 
	C336.090271,231.435822 332.324829,227.663681 328.556000,223.895004 
	C306.178772,201.518753 283.803101,179.141006 261.419128,156.771530 
	C256.546387,151.901947 254.839325,151.863800 249.929825,156.881149 
	C247.257416,159.612259 244.854935,162.607498 241.757797,166.136414 
	C238.061111,162.119690 235.314301,158.750214 232.123627,155.872925 
	C230.976639,154.838608 228.761063,154.989243 227.033157,154.599091 
	C227.320786,156.456833 226.972870,158.871307 228.018555,160.065002 
	C230.842636,163.288803 234.259842,165.993042 237.838974,169.266754 
	C229.829391,177.154755 222.479919,184.392639 214.622559,192.122574 
M349.196350,266.255798 
	C348.196686,263.284760 347.196991,260.313751 345.839935,256.280518 
	C345.096466,258.565582 344.736725,259.496155 344.490417,260.455841 
	C342.427338,268.494354 339.925446,276.457550 338.495270,284.608337 
	C337.513092,290.206024 340.830261,293.300415 346.122711,293.334076 
	C351.701263,293.369598 354.565277,290.774475 353.789948,284.847412 
	C352.999847,278.807220 350.990356,272.926483 349.196350,266.255798 
z"/>
<path fill="#F3F3F3" opacity="1.000000" stroke="none" 
	d="
M343.137115,88.555298 
	C340.626373,78.889793 346.019958,69.200386 354.745880,67.113670 
	C363.252930,65.079300 371.395935,70.417709 373.341461,79.562576 
	C371.813202,79.985596 370.263824,80.414459 368.740601,80.836082 
	C364.073395,73.603996 360.764587,71.593094 355.963501,73.019768 
	C352.116425,74.162949 348.240265,79.046661 348.229126,83.151878 
	C348.217438,87.485733 350.714355,90.414223 354.548523,91.822136 
	C357.324921,92.841629 360.510590,93.304398 362.013702,89.051010 
	C360.808228,88.078957 359.564545,87.076096 358.022858,85.832939 
	C358.984375,84.423363 359.862396,83.136200 360.924316,81.579445 
	C362.658478,82.670570 364.182953,83.594376 365.669800,84.575226 
	C367.159210,85.557762 368.610992,86.597275 370.331024,87.785759 
	C366.965698,92.851723 363.777374,97.651245 360.195221,103.043610 
	C354.347015,98.168259 348.802734,93.546249 343.137115,88.555298 
z"/>
<path fill="#F4F4F4" opacity="1.000000" stroke="none" 
	d="
M68.961716,185.357941 
	C59.862030,181.981293 55.671913,175.633102 57.155697,167.897675 
	C58.629017,160.216797 64.490814,155.207672 72.075485,155.148163 
	C79.949409,155.086380 87.154076,160.934982 88.427330,168.422272 
	C90.245567,179.114304 81.092995,187.307007 68.961716,185.357941 
M80.526939,176.969223 
	C83.634911,173.075089 83.846138,169.098999 80.640610,165.198914 
	C77.738312,161.667740 71.916878,160.246384 67.941826,162.088242 
	C63.980629,163.923676 62.688751,167.220566 62.859566,171.461212 
	C63.094826,177.301605 74.092484,183.782150 80.526939,176.969223 
z"/>
<path fill="#F4F4F4" opacity="1.000000" stroke="none" 
	d="
M135.172516,74.575806 
	C137.457611,67.207245 142.021576,62.797398 149.404587,62.101810 
	C156.383606,61.444290 160.994476,65.335754 164.163315,71.101151 
	C167.285614,76.781845 166.696548,83.282761 162.901932,87.883698 
	C158.986938,92.630585 152.112289,94.875435 146.353912,92.925209 
	C139.738739,90.684799 136.383484,85.582466 135.136383,78.954994 
	C134.895432,77.674446 135.105988,76.308937 135.172516,74.575806 
M141.761963,73.538353 
	C140.339737,79.589760 142.787491,84.936462 147.961151,87.079384 
	C152.493332,88.956619 156.584244,87.557823 159.018463,83.298576 
	C161.395828,79.138870 159.916031,73.341469 155.621719,69.991058 
	C151.030029,66.408630 146.347366,67.378563 141.761963,73.538353 
z"/>
<path fill="#F4F4F4" opacity="1.000000" stroke="none" 
	d="
M97.169296,124.206894 
	C97.606773,126.183517 97.891853,127.797661 98.228218,129.702255 
	C102.373238,130.500732 106.746017,131.343079 111.319504,132.224091 
	C110.446815,136.456619 108.238487,137.973068 103.960754,136.977921 
	C100.688812,136.216751 97.272484,136.076263 93.920387,135.659683 
	C93.744080,136.321655 93.567772,136.983612 93.391464,137.645569 
	C96.602814,140.040466 99.814163,142.435364 103.269638,145.012314 
	C102.074059,146.648773 101.048874,148.051987 99.866722,149.670059 
	C91.366058,143.828186 83.197083,138.214249 74.641029,132.334290 
	C76.587372,129.459061 78.375465,126.719772 80.261688,124.049797 
	C85.552521,116.560616 91.244682,116.504395 97.169296,124.206894 
M84.132622,128.524490 
	C81.948723,133.426331 86.819641,132.482849 89.343071,134.231689 
	C90.382141,131.310837 91.896057,127.496590 90.609688,125.776382 
	C88.534058,123.000694 86.078262,125.508705 84.132622,128.524490 
z"/>
<path fill="#F4F4F4" opacity="1.000000" stroke="none" 
	d="
M389.654449,132.503357 
	C388.626526,131.185989 387.854309,130.122955 386.796387,128.666656 
	C395.048676,122.610237 403.148651,116.665573 411.517761,110.523415 
	C413.634796,113.387703 415.630493,116.014244 417.546417,118.697731 
	C420.224640,122.448906 421.738281,126.512238 418.615448,130.611725 
	C415.552460,134.632614 411.449707,135.851242 406.458405,133.330383 
	C404.164520,137.386169 401.901428,141.387497 399.600494,145.455750 
	C395.904419,142.901703 395.046051,140.213409 397.758331,136.615082 
	C399.139832,134.782196 400.195282,132.642563 401.055878,130.503906 
	C401.480865,129.447815 401.129639,128.079391 401.129639,126.433174 
	C396.886993,128.824783 393.398590,130.791245 389.654449,132.503357 
M413.425140,127.485100 
	C412.868500,124.602676 412.311859,121.720261 411.603363,118.051414 
	C408.569275,120.229141 406.868378,121.449974 404.748932,122.971214 
	C407.446991,125.203827 407.811096,130.047287 413.425140,127.485100 
z"/>
<path fill="#F4F4F4" opacity="1.000000" stroke="none" 
	d="
M187.656097,76.614288 
	C186.193542,76.205513 184.427368,75.879852 184.123383,75.030724 
	C181.003098,66.315002 178.119843,57.514427 175.066544,48.428288 
	C178.380783,47.240681 181.471313,46.113789 184.575409,45.025589 
	C188.997284,43.475414 193.256760,43.444099 196.216385,47.642509 
	C199.108597,51.745308 198.987106,56.017113 195.236557,60.202045 
	C198.420349,63.628162 201.548553,66.994476 204.716904,70.403984 
	C201.344147,73.083099 198.528366,73.110466 195.871246,69.554016 
	C194.388962,67.570076 192.575592,65.792076 190.698532,64.167191 
	C190.051270,63.606888 188.695694,63.536110 187.794876,63.762878 
	C187.445724,63.850769 187.153336,65.465195 187.366165,66.237938 
	C187.980453,68.468414 189.153732,70.577560 189.519531,72.829849 
	C189.697952,73.928482 188.568588,75.239525 187.656097,76.614288 
M182.876633,52.582642 
	C183.433762,54.404308 183.990891,56.225971 184.806702,58.893402 
	C187.636887,56.456970 193.228241,57.709305 191.809036,52.523479 
	C190.453323,47.569691 186.478806,51.150414 183.596420,51.553986 
	C183.455215,51.573757 183.334824,51.742195 182.876633,52.582642 
z"/>
<path fill="#F3F3F3" opacity="1.000000" stroke="none" 
	d="
M456.501526,218.364594 
	C456.790070,220.764206 456.985046,222.729553 457.204712,224.944031 
	C455.269989,225.123962 453.672485,225.272522 451.711670,225.454880 
	C451.037750,220.599518 450.403076,216.026855 449.698700,210.951904 
	C447.593292,211.216751 445.541229,211.474884 442.987488,211.796112 
	C443.424835,215.839600 443.844452,219.719223 444.281097,223.756592 
	C442.585724,224.161621 441.170929,224.499634 439.174896,224.976517 
	C438.498260,220.949036 437.852631,217.106110 437.123871,212.768295 
	C435.094452,212.979752 433.188354,213.178345 430.682037,213.439484 
	C431.215942,218.450684 431.716553,223.149185 432.251068,228.165848 
	C430.338470,228.424606 428.751495,228.639328 426.803131,228.902924 
	C425.883118,221.981445 425.011230,215.422318 424.061584,208.278015 
	C434.218170,206.984009 444.189362,205.713608 454.593689,204.388031 
	C455.230743,209.143265 455.819336,213.536804 456.501526,218.364594 
z"/>
<path fill="#F2F2F2" opacity="1.000000" stroke="none" 
	d="
M304.760437,41.217205 
	C306.389069,41.702885 307.620819,42.098236 309.091736,42.570354 
	C308.614227,44.342625 308.194183,45.901566 307.678650,47.814857 
	C302.889923,46.695526 298.266510,45.614838 293.359161,44.467773 
	C292.818939,46.623135 292.313690,48.639027 291.710999,51.043758 
	C295.805695,52.114017 299.576935,53.099735 303.592438,54.149288 
	C303.225281,55.898113 302.930481,57.302467 302.523590,59.240601 
	C298.532318,58.422127 294.707916,57.637863 290.493225,56.773575 
	C289.953644,58.890854 289.444672,60.888065 288.824097,63.323215 
	C293.658844,64.514145 298.242065,65.643120 303.198303,66.863976 
	C302.816650,68.656609 302.486145,70.209084 302.065704,72.183846 
	C295.247833,70.596260 288.717834,69.075699 281.787384,67.461891 
	C284.129822,57.493061 286.392151,47.865204 288.785980,37.677658 
	C294.139709,38.863098 299.251617,39.994991 304.760437,41.217205 
z"/>
<path fill="#F4F4F4" opacity="1.000000" stroke="none" 
	d="
M46.060505,213.631531 
	C45.659107,207.352081 47.438404,202.487000 52.546185,198.837906 
	C53.676113,200.300156 54.676731,201.595062 55.635017,202.835190 
	C50.978527,209.863098 50.692711,214.214996 54.530270,218.021469 
	C57.881695,221.345734 63.799328,221.790863 67.840858,219.022690 
	C72.009460,216.167496 72.702415,212.086594 69.965836,205.410126 
	C71.279587,204.369614 72.669991,203.268387 74.064934,202.163574 
	C78.381355,207.848969 78.816200,213.997070 75.287796,219.741135 
	C71.780907,225.450195 66.461967,227.624710 59.986141,226.890350 
	C52.530445,226.044861 48.171101,221.882690 46.060505,213.631531 
z"/>
<path fill="#F8F8F8" opacity="1.000000" stroke="none" 
	d="
M106.190201,105.810242 
	C103.782394,103.746910 101.623894,101.934013 99.286308,99.970711 
	C102.744003,96.553276 105.300972,93.710793 108.184181,91.250664 
	C112.462128,87.600471 117.174782,87.664658 120.757874,91.070816 
	C124.718826,94.836182 124.910164,99.249420 121.213943,103.939926 
	C119.984444,105.500175 118.556732,106.904228 116.325928,109.365875 
	C119.469124,111.716194 122.642128,114.088806 126.378876,116.882950 
	C123.995392,118.552727 122.644333,119.499229 121.413116,120.361763 
	C116.674736,115.836205 111.557121,110.948441 106.190201,105.810242 
M109.865440,101.169991 
	C110.908569,102.116058 111.951691,103.062119 114.142822,105.049370 
	C115.415054,101.486984 116.363518,98.831169 117.311981,96.175354 
	C115.846642,95.800880 113.915672,94.662056 113.013313,95.211739 
	C111.159584,96.340988 107.427147,96.797295 109.865440,101.169991 
z"/>
<path fill="#F5F5F5" opacity="1.000000" stroke="none" 
	d="
M230.623352,46.324799 
	C233.967255,52.435406 237.103409,58.239719 240.239578,64.044037 
	C240.027344,64.553947 239.815109,65.063858 239.602875,65.573769 
	C237.405167,64.813141 235.211304,63.445442 233.008850,63.431431 
	C229.538116,63.409355 225.957016,63.944202 222.626251,64.930733 
	C220.586166,65.534966 218.926285,67.422905 217.095657,68.734352 
	C216.648010,68.344467 216.200363,67.954575 215.752701,67.564682 
	C218.381363,56.809032 221.010010,46.053387 223.918503,34.152706 
	C226.491943,38.852612 228.453796,42.435558 230.623352,46.324799 
M224.868408,53.560059 
	C224.605743,54.945415 224.343079,56.330772 223.995575,58.163551 
	C226.109619,57.948212 227.790482,57.777000 229.987488,57.553211 
	C228.689911,54.752029 227.625977,52.455219 226.157700,49.285526 
	C225.547714,51.063473 225.251938,51.925579 224.868408,53.560059 
z"/>
<path fill="#F4F4F4" opacity="1.000000" stroke="none" 
	d="
M269.953796,36.087654 
	C269.986084,37.680786 269.917480,38.831547 269.831726,40.270527 
	C267.978271,40.362652 266.216614,40.450211 263.751434,40.572742 
	C263.305634,48.531097 262.855774,56.561619 262.390198,64.872475 
	C260.471619,64.872475 258.755615,64.872475 256.618164,64.872475 
	C256.984009,56.634552 257.341766,48.579140 257.708313,40.325447 
	C255.884094,40.054298 254.117783,39.791756 252.025223,39.480721 
	C252.025223,37.908539 252.025223,36.362755 252.025223,34.275375 
	C258.131042,34.744556 263.992004,35.194920 269.953796,36.087654 
z"/>
<path fill="#F3F3F3" opacity="1.000000" stroke="none" 
	d="
M433.913940,151.738235 
	C427.157349,154.993088 420.740540,158.077850 414.131226,161.255188 
	C415.622009,164.541672 417.024017,167.632446 418.556671,171.011276 
	C416.942810,171.898941 415.548187,172.666016 413.602997,173.735916 
	C411.146790,168.597519 408.828918,163.748428 406.273010,158.401413 
	C415.544617,153.930084 424.570221,149.577393 434.036011,145.012421 
	C434.286713,147.425751 438.599915,149.098999 433.913940,151.738235 
z"/>
<path fill="#F1F1F1" opacity="1.000000" stroke="none" 
	d="
M438.860107,187.765930 
	C432.589294,189.587799 426.703278,191.295120 420.414581,193.119232 
	C419.827759,191.383408 419.271942,189.739258 418.543732,187.585236 
	C428.473022,184.552811 438.049316,181.628174 448.072845,178.566971 
	C448.680206,180.593185 449.177368,182.251740 449.798401,184.323547 
	C446.100677,185.489548 442.672821,186.570450 438.860107,187.765930 
z"/>
<path fill="#F0F0F0" opacity="1.000000" stroke="none" 
	d="
M381.952545,102.950363 
	C385.958649,98.956703 389.727417,95.225311 393.696594,91.295502 
	C395.159210,92.577232 396.499908,93.752129 397.720886,94.822121 
	C397.071716,95.924179 396.897675,96.429512 396.557129,96.766670 
	C389.812958,103.443260 383.049561,110.100426 375.981567,117.065514 
	C374.844879,116.010910 373.547821,114.807541 370.802216,112.260246 
	C374.559631,109.145111 378.137421,106.178871 381.952545,102.950363 
z"/>
<path fill="#DBDBDB" opacity="1.000000" stroke="none" 
	d="
M292.254761,443.261261 
	C289.733185,443.771606 287.525391,444.093506 285.093933,444.448029 
	C285.393188,446.456329 285.718079,448.636536 286.042938,450.816742 
	C285.430756,450.949829 284.818573,451.082916 284.206421,451.216003 
	C282.789612,444.706421 281.372803,438.196838 279.889832,431.383179 
	C284.993774,431.336090 290.348145,425.425873 294.304169,432.855988 
	C296.261322,436.531982 296.375732,440.218018 292.254761,443.261261 
M284.893036,432.806091 
	C284.487946,434.339844 283.608093,435.927887 283.776031,437.396118 
	C284.131775,440.507172 285.778290,442.688141 289.414642,442.070160 
	C292.889740,441.479614 293.328064,438.886627 293.019623,436.071381 
	C292.588989,432.140503 289.745941,430.760040 284.893036,432.806091 
z"/>
<path fill="#DEDEDE" opacity="1.000000" stroke="none" 
	d="
M115.593834,373.631989 
	C113.261612,377.674500 111.149986,381.417725 109.013550,385.146698 
	C108.892570,385.357849 108.568031,385.452332 107.316467,385.241882 
	C108.053871,383.200745 108.791275,381.159607 109.673233,378.718353 
	C108.217628,376.999634 106.529327,375.006195 104.853317,373.027252 
	C102.505417,373.519745 100.341255,373.973663 98.177094,374.427612 
	C98.030304,373.880920 97.883514,373.334229 97.736725,372.787537 
	C104.561531,370.201019 111.386330,367.614502 118.211128,365.028015 
	C118.574783,365.424927 118.938431,365.821869 119.302086,366.218781 
	C118.137741,368.589050 116.973396,370.959320 115.593834,373.631989 
M113.423927,372.949371 
	C114.004929,371.741333 114.585938,370.533295 115.620132,368.382935 
	C112.122444,369.723053 109.653000,370.669189 106.687996,371.805206 
	C108.338013,373.701904 109.553596,375.099213 111.030792,376.797241 
	C111.863770,375.480774 112.448860,374.556061 113.423927,372.949371 
z"/>
<path fill="#DEDEDE" opacity="1.000000" stroke="none" 
	d="
M226.600037,441.199890 
	C224.873398,442.928040 222.879303,445.497742 220.738190,445.626740 
	C218.601593,445.755402 215.670975,443.941010 214.233337,442.089539 
	C211.261856,438.262665 212.732361,429.661713 216.291214,426.361694 
	C220.849228,422.135193 227.250458,423.979340 228.847580,430.822144 
	C224.942947,427.894226 221.373367,423.384644 217.281052,429.352264 
	C214.896545,432.829498 214.641037,439.054626 216.830566,441.591187 
	C220.230240,445.529602 223.212097,442.566406 226.600037,441.199890 
z"/>
<path fill="#DBDBDB" opacity="1.000000" stroke="none" 
	d="
M399.723206,359.332764 
	C396.330017,356.330963 393.739075,353.323608 395.791168,348.796753 
	C397.346741,345.365204 399.898773,343.419891 404.606079,344.420013 
	C400.418915,347.049011 394.690002,349.178955 399.264893,355.163239 
	C401.816010,358.500275 405.703644,361.619110 409.860687,359.731476 
	C412.150055,358.691833 412.971039,354.418549 414.903778,350.749390 
	C415.143097,352.953552 416.098999,355.374115 415.458221,357.248993 
	C414.299194,360.640106 411.759369,363.510986 407.675201,362.771606 
	C405.012238,362.289490 402.553864,360.677399 399.723206,359.332764 
z"/>
<path fill="#DEDEDE" opacity="1.000000" stroke="none" 
	d="
M359.244690,414.737610 
	C357.886261,415.754852 356.891510,416.847992 355.673096,417.232880 
	C353.050964,418.061218 350.110229,419.456055 347.670715,418.922729 
	C343.886749,418.095520 342.504364,414.589569 342.846741,410.763763 
	C343.150635,407.367920 345.168396,405.553558 348.531830,404.901611 
	C349.837860,404.648407 351.001221,403.659119 352.674957,402.768036 
	C354.907776,406.599731 357.207367,410.546082 359.244690,414.737610 
M354.993591,411.827789 
	C353.919434,408.444061 351.739563,406.015198 348.155182,407.389923 
	C346.670532,407.959351 344.945892,411.194244 345.362854,412.624451 
	C345.924561,414.551392 348.235321,416.837463 350.182953,417.285736 
	C353.035919,417.942383 355.060974,415.921173 354.993591,411.827789 
z"/>
<path fill="#D7D7D7" opacity="1.000000" stroke="none" 
	d="
M84.546417,335.335999 
	C88.911209,334.727997 91.943466,336.205719 92.974480,340.164795 
	C93.892372,343.689514 92.742226,346.690857 88.685318,348.592957 
	C86.800385,345.337067 84.953346,342.146637 83.024094,338.814178 
	C77.912376,342.552460 81.907242,345.759369 83.399963,349.016449 
	C82.841881,349.258942 82.283798,349.501465 81.725723,349.743958 
	C80.521698,347.373352 77.936119,344.636566 78.444145,342.719696 
	C79.168663,339.985840 82.161057,337.852966 84.546417,335.335999 
M85.400574,337.824463 
	C86.555466,340.393524 87.710365,342.962555 89.138680,346.139832 
	C92.254951,340.460266 91.387077,338.654510 85.400574,337.824463 
z"/>
<path fill="#E4E4E4" opacity="1.000000" stroke="none" 
	d="
M381.437134,393.952118 
	C375.432404,390.458099 373.670135,386.588104 375.970764,382.730804 
	C378.471863,378.537476 382.915710,378.214996 387.339539,382.096008 
	C384.708588,384.498505 382.071075,386.906982 379.351440,389.390472 
	C384.280151,393.187622 386.062073,392.224030 389.108368,385.102051 
	C391.403320,389.921051 388.449951,393.533752 381.437134,393.952118 
M382.472351,381.117157 
	C377.245544,382.488403 376.419006,383.912415 378.444183,388.677185 
	C380.040894,387.150635 381.683228,385.829254 382.971130,384.223602 
	C383.467987,383.604095 383.159882,382.338928 382.472351,381.117157 
z"/>
<path fill="#DBDBDB" opacity="1.000000" stroke="none" 
	d="
M162.494781,414.281067 
	C166.369827,412.188507 170.170731,412.264679 171.991058,415.814636 
	C173.191071,418.154907 173.035004,421.930634 172.026596,424.488098 
	C170.549408,428.234467 166.122299,429.149292 162.720032,427.136230 
	C159.222076,425.066589 158.133286,421.961670 159.725113,418.182343 
	C160.286621,416.849213 161.344849,415.725311 162.494781,414.281067 
M161.288666,421.403900 
	C161.919998,424.341827 163.703842,426.803741 166.654831,425.632843 
	C168.613571,424.855621 170.381943,422.130524 170.962616,419.939941 
	C171.273712,418.766266 169.193832,416.030975 167.664459,415.487427 
	C164.316345,414.297577 162.655807,416.883667 161.592819,419.714233 
	C161.477371,420.021637 161.418243,420.350189 161.288666,421.403900 
z"/>
<path fill="#E1E1E1" opacity="1.000000" stroke="none" 
	d="
M252.244247,440.870911 
	C250.986404,446.251373 248.162735,448.596313 244.079132,447.994110 
	C240.645508,447.487701 237.907501,443.787079 238.106247,439.921295 
	C238.312546,435.908478 241.212051,432.903198 245.012741,432.762848 
	C249.109253,432.611572 251.470367,435.130402 252.244247,440.870911 
M244.639145,445.873932 
	C248.330933,446.176300 250.090424,443.909576 249.851639,440.786469 
	C249.702835,438.840210 248.286026,436.216461 246.678696,435.409332 
	C245.466293,434.800568 242.232986,436.058899 241.342819,437.426117 
	C239.621399,440.070038 239.850433,443.168701 242.963623,445.236908 
	C243.238907,445.419830 243.556076,445.539642 244.639145,445.873932 
z"/>
<path fill="#DBDBDB" opacity="1.000000" stroke="none" 
	d="
M78.147919,287.950989 
	C78.744835,287.430725 79.936287,287.174438 79.952614,287.234955 
	C81.210655,291.901672 82.376335,296.593292 83.549133,301.282990 
	C83.038490,301.449188 82.527840,301.615356 82.017197,301.781555 
	C81.328194,299.974792 80.639191,298.168060 79.765808,295.877808 
	C73.828735,297.231201 67.812874,298.602570 61.797012,299.973938 
	C61.617126,299.255554 61.437237,298.537170 61.257351,297.818787 
	C67.066681,296.283691 72.876015,294.748627 79.232391,293.068970 
	C78.873375,291.441956 78.533669,289.902405 78.147919,287.950989 
z"/>
<path fill="#E1E1E1" opacity="1.000000" stroke="none" 
	d="
M313.563690,437.836090 
	C307.283569,437.489807 304.311340,434.472107 304.710114,429.318695 
	C305.038818,425.070801 308.276184,422.401550 312.540894,422.979218 
	C316.395172,423.501343 318.252960,426.165131 318.868774,429.661957 
	C319.571777,433.653687 317.731201,436.359283 313.563690,437.836090 
M315.371155,427.053741 
	C310.965851,423.880249 307.163116,424.690491 307.137360,429.060059 
	C307.124969,431.166626 308.551910,433.646393 310.077759,435.237122 
	C310.796417,435.986450 314.427155,435.527252 314.754486,434.764435 
	C315.665894,432.640350 315.539246,430.070831 315.371155,427.053741 
z"/>
<path fill="#DEDEDE" opacity="1.000000" stroke="none" 
	d="
M438.623047,297.512146 
	C438.710388,295.433350 438.621613,293.724854 438.532806,292.016327 
	C439.055786,291.918640 439.578766,291.820923 440.101715,291.723236 
	C440.274567,293.861206 441.036011,296.164001 440.493439,298.101654 
	C439.475220,301.737854 436.402435,303.389313 432.764435,302.799835 
	C429.127411,302.210510 426.240875,300.236084 425.941162,296.059631 
	C425.711914,292.865814 426.797913,290.467072 431.209686,289.297913 
	C428.959564,293.051880 425.681274,296.365051 430.238312,299.388153 
	C433.184174,301.342407 436.211365,301.111786 438.623047,297.512146 
z"/>
<path fill="#DBDBDB" opacity="1.000000" stroke="none" 
	d="
M187.007721,425.703003 
	C185.578064,429.241119 184.263351,432.377106 182.948639,435.513062 
	C182.471603,435.331665 181.994583,435.150299 181.517563,434.968903 
	C181.759216,433.817719 181.713379,432.490356 182.292130,431.545715 
	C184.845444,427.378113 183.871124,422.066071 187.146393,418.015350 
	C189.178467,415.502106 190.794632,414.121368 194.082108,415.703064 
	C192.307632,417.052521 190.212418,417.921539 189.461578,419.450684 
	C188.881454,420.632172 189.986374,422.641022 190.379944,424.456329 
	C189.632797,424.650055 188.377731,424.975464 187.007721,425.703003 
z"/>
<path fill="#DEDEDE" opacity="1.000000" stroke="none" 
	d="
M79.984604,317.053192 
	C77.477730,317.235840 74.953926,317.296906 72.469765,317.642761 
	C70.735023,317.884277 69.054558,318.515625 67.349846,318.972839 
	C67.173256,318.385620 66.996666,317.798431 66.820068,317.211212 
	C73.695694,314.521057 80.571320,311.830902 87.446938,309.140717 
	C87.712845,309.720734 87.978752,310.300720 88.244659,310.880707 
	C85.643883,312.144104 83.043106,313.407471 80.287933,315.415131 
	C80.083900,316.457367 80.034248,316.755280 79.984604,317.053192 
z"/>
<path fill="#DEDEDE" opacity="1.000000" stroke="none" 
	d="
M142.711853,399.633179 
	C141.108139,399.943451 139.478073,399.876770 138.712677,400.657654 
	C136.573029,402.840607 134.791107,405.374176 132.867996,407.769379 
	C132.415222,407.449585 131.962463,407.129822 131.509689,406.810028 
	C132.751450,404.940033 134.067780,403.114349 135.213531,401.187225 
	C136.311676,399.340149 137.232773,397.387787 138.703995,394.580353 
	C139.456329,394.186005 141.406799,393.163574 143.411743,392.112579 
	C143.300293,394.643646 143.190231,397.143341 142.711853,399.633179 
z"/>
<path fill="#DEDEDE" opacity="1.000000" stroke="none" 
	d="
M363.621033,393.262695 
	C364.813721,392.936096 365.631714,392.666779 366.866547,392.260254 
	C363.059814,399.058624 371.726044,400.516357 371.661041,405.881531 
	C366.513062,404.864349 366.605133,396.967255 360.955627,397.600311 
	C360.445129,395.317291 359.952393,393.113678 359.149200,389.521667 
	C361.142853,391.369934 362.194611,392.344940 363.621033,393.262695 
z"/>
<path fill="#E3E3E3" opacity="1.000000" stroke="none" 
	d="
M414.878235,334.005859 
	C418.030945,336.364868 421.183655,338.723877 424.336334,341.082886 
	C424.133881,341.491302 423.931396,341.899719 423.728943,342.308105 
	C417.138184,339.144287 410.547424,335.980438 403.956665,332.816589 
	C404.150452,332.293365 404.344208,331.770142 404.537994,331.246918 
	C407.070435,332.151550 409.602875,333.056152 412.830139,333.962219 
	C413.976074,333.977722 414.427155,333.991791 414.878235,334.005859 
z"/>
<path fill="#D7D7D7" opacity="1.000000" stroke="none" 
	d="
M118.777596,390.977356 
	C121.274414,388.324951 123.521088,385.939331 125.521889,383.814758 
	C128.079453,385.679993 130.169327,387.204132 132.830139,389.144684 
	C127.192642,388.736481 127.192642,388.736481 116.627434,394.427277 
	C117.260773,393.366211 117.894104,392.305176 118.777596,390.977356 
z"/>
<path fill="#DBDBDB" opacity="1.000000" stroke="none" 
	d="
M414.903198,333.616852 
	C414.427155,333.991791 413.976074,333.977722 413.186768,333.950836 
	C413.465881,326.926392 416.353302,325.198853 422.709869,328.109100 
	C424.879608,329.102448 426.977112,330.253479 429.107605,331.332458 
	C428.901978,331.846924 428.696350,332.361359 428.490723,332.875793 
	C425.989410,331.891510 423.430511,331.030396 421.000275,329.894104 
	C417.332428,328.179077 415.262756,329.037323 414.903198,333.616852 
z"/>
<path fill="#D3D3D3" opacity="1.000000" stroke="none" 
	d="
M80.147049,317.393066 
	C80.034248,316.755280 80.083900,316.457367 80.239174,315.718384 
	C85.046059,319.495209 84.631371,323.451447 79.142616,325.851654 
	C76.620277,326.954620 73.983185,327.795258 71.398140,328.754852 
	C71.122505,328.220795 70.846878,327.686768 70.571243,327.152710 
	C72.703308,326.145966 74.769150,324.949341 76.983032,324.177155 
	C80.262398,323.033417 82.436119,321.558502 80.147049,317.393066 
z"/>
<path fill="#D7D7D7" opacity="1.000000" stroke="none" 
	d="
M262.387421,434.039246 
	C263.575989,434.414551 265.794220,435.102386 265.826569,435.881073 
	C265.978088,439.529877 265.527985,443.203674 265.292786,446.868530 
	C264.804443,446.947083 264.316101,447.025635 263.827759,447.104187 
	C263.355194,442.867340 262.882629,438.630463 262.387421,434.039246 
z"/>
<path fill="#E4E4E4" opacity="1.000000" stroke="none" 
	d="
M329.041290,419.958313 
	C330.485992,423.355255 331.920380,426.376160 333.354767,429.397064 
	C332.709106,429.699005 332.063446,430.000977 331.417816,430.302917 
	C329.402924,426.072632 327.388031,421.842377 325.198792,417.246063 
	C327.129120,417.134155 328.417877,417.059479 329.326294,417.006805 
	C329.271759,417.482422 329.151367,418.532349 329.041290,419.958313 
z"/>
<path fill="#D7D7D7" opacity="1.000000" stroke="none" 
	d="
M425.643311,315.296539 
	C423.780304,314.576813 422.274353,313.987000 420.768402,313.397186 
	C421.006226,312.777466 421.244019,312.157745 421.481842,311.538025 
	C425.997314,313.069794 430.512787,314.601593 435.028290,316.133362 
	C434.825134,316.841034 434.621979,317.548676 434.418823,318.256348 
	C431.612701,317.313049 428.806549,316.369751 425.643311,315.296539 
z"/>
<path fill="#F0F0F0" opacity="1.000000" stroke="none" 
	d="
M64.790955,273.551819 
	C63.124596,274.317108 61.518631,275.131195 60.048321,274.933960 
	C59.474220,274.856934 58.719749,272.409302 58.956390,271.222656 
	C59.133785,270.333099 61.478931,268.976227 61.636623,269.124817 
	C62.891273,270.306793 63.853588,271.799103 64.790955,273.551819 
z"/>
<path fill="#E4E4E4" opacity="1.000000" stroke="none" 
	d="
M436.961975,270.501495 
	C438.660156,269.812073 440.318939,269.081390 441.776764,269.369019 
	C442.351044,269.482330 442.983124,272.020142 442.639099,273.169647 
	C442.385193,274.018036 439.941345,275.156708 439.601471,274.862518 
	C438.416748,273.837128 437.722656,272.244781 436.961975,270.501495 
z"/>
<path fill="#FEFEFC" opacity="1.000000" stroke="none" 
	d="
M214.876495,191.876556 
	C222.479919,184.392639 229.829391,177.154755 237.838974,169.266754 
	C234.259842,165.993042 230.842636,163.288803 228.018555,160.065002 
	C226.972870,158.871307 227.320786,156.456833 227.033173,154.599091 
	C228.761063,154.989243 230.976639,154.838608 232.123627,155.872925 
	C235.314301,158.750214 238.061111,162.119690 241.757797,166.136414 
	C244.854935,162.607498 247.257416,159.612259 249.929825,156.881149 
	C254.839325,151.863800 256.546387,151.901947 261.419128,156.771530 
	C283.803101,179.141006 306.178772,201.518753 328.556000,223.895004 
	C332.324829,227.663681 336.090271,231.435822 339.850403,235.213165 
	C344.740570,240.125687 344.789093,241.994644 340.036194,246.749390 
	C308.355103,278.442688 276.673096,310.135071 244.970779,341.807129 
	C235.808609,350.960541 235.771027,350.936157 226.714355,341.882355 
	C201.737488,316.913391 176.761963,291.943146 151.797424,266.961884 
	C146.626526,261.787506 146.607162,260.169983 151.731979,255.037262 
	C172.683380,234.053589 193.657059,213.092163 214.876495,191.876556 
M267.968384,191.531540 
	C270.914459,194.476135 273.734955,197.565231 276.871460,200.290665 
	C278.044647,201.310104 279.961456,201.977417 281.526550,201.954193 
	C287.994385,201.858139 292.660248,205.635391 292.740234,211.401978 
	C292.814636,216.768417 288.186707,221.252518 282.757080,221.074890 
	C276.915039,220.883789 273.362000,216.180725 273.659729,209.715942 
	C273.744537,207.874680 272.972656,205.532623 271.752655,204.177200 
	C267.746399,199.726364 263.310577,195.665527 259.121124,191.375427 
	C254.395126,186.535934 249.757248,181.610413 245.782501,177.455551 
	C233.275116,189.798447 221.482330,201.436127 209.415192,213.344559 
	C249.430893,222.589111 289.441772,231.832535 329.379822,241.059128 
	C304.517273,216.161194 279.851562,191.460419 255.854111,167.428802 
	C253.953186,169.038757 251.736847,170.915863 249.153320,173.103958 
	C255.333542,179.153763 261.400665,185.092865 267.968384,191.531540 
z"/>
<path fill="#FEFCF5" opacity="1.000000" stroke="none" 
	d="
M349.355530,266.615875 
	C350.990356,272.926483 352.999847,278.807220 353.789948,284.847412 
	C354.565277,290.774475 351.701263,293.369598 346.122711,293.334076 
	C340.830261,293.300415 337.513092,290.206024 338.495270,284.608337 
	C339.925446,276.457550 342.427338,268.494354 344.490417,260.455841 
	C344.736725,259.496155 345.096466,258.565582 345.839935,256.280518 
	C347.196991,260.313751 348.196686,263.284760 349.355530,266.615875 
z"/>
<path fill="#060606" opacity="1.000000" stroke="none" 
	d="
M80.251541,177.241791 
	C74.092484,183.782150 63.094826,177.301605 62.859566,171.461212 
	C62.688751,167.220566 63.980629,163.923676 67.941826,162.088242 
	C71.916878,160.246384 77.738312,161.667740 80.640610,165.198914 
	C83.846138,169.098999 83.634911,173.075089 80.251541,177.241791 
z"/>
<path fill="#050505" opacity="1.000000" stroke="none" 
	d="
M141.897232,73.172089 
	C146.347366,67.378563 151.030029,66.408630 155.621719,69.991058 
	C159.916031,73.341469 161.395828,79.138870 159.018463,83.298576 
	C156.584244,87.557823 152.493332,88.956619 147.961151,87.079384 
	C142.787491,84.936462 140.339737,79.589760 141.897232,73.172089 
z"/>
<path fill="#0E0E0E" opacity="1.000000" stroke="none" 
	d="
M84.359680,128.226349 
	C86.078262,125.508705 88.534058,123.000694 90.609688,125.776382 
	C91.896057,127.496590 90.382141,131.310837 89.343071,134.231689 
	C86.819641,132.482849 81.948723,133.426331 84.359680,128.226349 
z"/>
<path fill="#0F0F0F" opacity="1.000000" stroke="none" 
	d="
M413.130402,127.720200 
	C407.811096,130.047287 407.446991,125.203827 404.748932,122.971214 
	C406.868378,121.449974 408.569275,120.229141 411.603363,118.051414 
	C412.311859,121.720261 412.868500,124.602676 413.130402,127.720200 
z"/>
<path fill="#0F0F0F" opacity="1.000000" stroke="none" 
	d="
M183.040680,52.212021 
	C183.334824,51.742195 183.455215,51.573757 183.596420,51.553986 
	C186.478806,51.150414 190.453323,47.569691 191.809036,52.523479 
	C193.228241,57.709305 187.636887,56.456970 184.806702,58.893402 
	C183.990891,56.225971 183.433762,54.404308 183.040680,52.212021 
z"/>
<path fill="#121212" opacity="1.000000" stroke="none" 
	d="
M109.572601,100.911934 
	C107.427147,96.797295 111.159584,96.340988 113.013313,95.211739 
	C113.915672,94.662056 115.846642,95.800880 117.311981,96.175354 
	C116.363518,98.831169 115.415054,101.486984 114.142822,105.049370 
	C111.951691,103.062119 110.908569,102.116058 109.572601,100.911934 
z"/>
<path fill="#292929" opacity="1.000000" stroke="none" 
	d="
M224.912292,53.173870 
	C225.251938,51.925579 225.547714,51.063473 226.157700,49.285526 
	C227.625977,52.455219 228.689911,54.752029 229.987488,57.553211 
	C227.790482,57.777000 226.109619,57.948212 223.995575,58.163551 
	C224.343079,56.330772 224.605743,54.945415 224.912292,53.173870 
z"/>
<path fill="#070707" opacity="1.000000" stroke="none" 
	d="
M285.169647,432.520599 
	C289.745941,430.760040 292.588989,432.140503 293.019623,436.071381 
	C293.328064,438.886627 292.889740,441.479614 289.414642,442.070160 
	C285.778290,442.688141 284.131775,440.507172 283.776031,437.396118 
	C283.608093,435.927887 284.487946,434.339844 285.169647,432.520599 
z"/>
<path fill="#0F0F0F" opacity="1.000000" stroke="none" 
	d="
M113.228935,373.290375 
	C112.448860,374.556061 111.863770,375.480774 111.030792,376.797241 
	C109.553596,375.099213 108.338013,373.701904 106.687996,371.805206 
	C109.653000,370.669189 112.122444,369.723053 115.620132,368.382935 
	C114.585938,370.533295 114.004929,371.741333 113.228935,373.290375 
z"/>
<path fill="#080808" opacity="1.000000" stroke="none" 
	d="
M355.027954,412.231689 
	C355.060974,415.921173 353.035919,417.942383 350.182953,417.285736 
	C348.235321,416.837463 345.924561,414.551392 345.362854,412.624451 
	C344.945892,411.194244 346.670532,407.959351 348.155182,407.389923 
	C351.739563,406.015198 353.919434,408.444061 355.027954,412.231689 
z"/>
<path fill="#1E1E1E" opacity="1.000000" stroke="none" 
	d="
M85.697395,337.624603 
	C91.387077,338.654510 92.254951,340.460266 89.138680,346.139832 
	C87.710365,342.962555 86.555466,340.393524 85.697395,337.624603 
z"/>
<path fill="#232323" opacity="1.000000" stroke="none" 
	d="
M382.845459,381.242554 
	C383.159882,382.338928 383.467987,383.604095 382.971130,384.223602 
	C381.683228,385.829254 380.040894,387.150635 378.444183,388.677185 
	C376.419006,383.912415 377.245544,382.488403 382.845459,381.242554 
z"/>
<path fill="#080808" opacity="1.000000" stroke="none" 
	d="
M161.310837,421.036438 
	C161.418243,420.350189 161.477371,420.021637 161.592819,419.714233 
	C162.655807,416.883667 164.316345,414.297577 167.664459,415.487427 
	C169.193832,416.030975 171.273712,418.766266 170.962616,419.939941 
	C170.381943,422.130524 168.613571,424.855621 166.654831,425.632843 
	C163.703842,426.803741 161.919998,424.341827 161.310837,421.036438 
z"/>
<path fill="#0B0B0B" opacity="1.000000" stroke="none" 
	d="
M244.246460,445.781372 
	C243.556076,445.539642 243.238907,445.419830 242.963623,445.236908 
	C239.850433,443.168701 239.621399,440.070038 241.342819,437.426117 
	C242.232986,436.058899 245.466293,434.800568 246.678696,435.409332 
	C248.286026,436.216461 249.702835,438.840210 249.851639,440.786469 
	C250.090424,443.909576 248.330933,446.176300 244.246460,445.781372 
z"/>
<path fill="#0A0A0A" opacity="1.000000" stroke="none" 
	d="
M315.596863,427.365479 
	C315.539246,430.070831 315.665894,432.640350 314.754486,434.764435 
	C314.427155,435.527252 310.796417,435.986450 310.077759,435.237122 
	C308.551910,433.646393 307.124969,431.166626 307.137360,429.060059 
	C307.163116,424.690491 310.965851,423.880249 315.596863,427.365479 
z"/>
<path fill="#FEC607" opacity="1.000000" stroke="none" 
	d="
M267.718109,191.281754 
	C261.400665,185.092865 255.333542,179.153763 249.153320,173.103958 
	C251.736847,170.915863 253.953186,169.038757 255.854111,167.428802 
	C279.851562,191.460419 304.517273,216.161194 329.379822,241.059128 
	C289.441772,231.832535 249.430893,222.589111 209.415192,213.344559 
	C221.482330,201.436127 233.275116,189.798447 245.782501,177.455551 
	C249.757248,181.610413 254.395126,186.535934 259.121124,191.375427 
	C263.310577,195.665527 267.746399,199.726364 271.752655,204.177200 
	C272.972656,205.532623 273.744537,207.874680 273.659729,209.715942 
	C273.362000,216.180725 276.915039,220.883789 282.757080,221.074890 
	C288.186707,221.252518 292.814636,216.768417 292.740234,211.401978 
	C292.660248,205.635391 287.994385,201.858139 281.526550,201.954193 
	C279.961456,201.977417 278.044647,201.310104 276.871460,200.290665 
	C273.734955,197.565231 270.914459,194.476135 267.718109,191.281754 
z"/>
</svg>