<?xml version="1.0" encoding="UTF-8"?>
<svg version="1.1" xmlns="http://www.w3.org/2000/svg" width="500" height="500">
<path d="M0 0 C165 0 330 0 500 0 C500 165 500 330 500 500 C335 500 170 500 0 500 C0 335 0 170 0 0 Z " fill="#FEFEFE" transform="translate(0,0)"/>
<path d="M0 0 C0.90065186 0.26385498 1.80130371 0.52770996 2.72924805 0.79956055 C24.98432362 7.46400206 44.13686248 18.03723826 61.1171875 33.953125 C62.7769115 35.47324604 64.48921476 36.93802812 66.25 38.33984375 C69.8835625 41.26223201 72.69297828 44.63624166 75.625 48.25 C76.84896484 49.75820312 76.84896484 49.75820312 78.09765625 51.296875 C93.94274431 71.51552039 103.85704618 94.93151893 107.625 120.25 C107.810625 121.43335938 107.99625 122.61671875 108.1875 123.8359375 C111.35115823 150.10350302 108.67754714 178.47331301 96.625 202.25 C96.03021778 203.50410391 95.4379549 204.75940448 94.84765625 206.015625 C90.53282844 215.07861433 85.64141679 223.20677614 79.625 231.25 C78.68914062 232.52230469 78.68914062 232.52230469 77.734375 233.8203125 C60.45585288 256.39854938 37.77530732 270.88343604 11.625 281.25 C10.62339844 281.65871338 10.62339844 281.65871338 9.6015625 282.07568359 C4.53830139 284.0790506 -0.54303302 285.30518319 -5.875 286.375 C-6.67808594 286.54386719 -7.48117187 286.71273438 -8.30859375 286.88671875 C-46.40271881 294.72781094 -86.49341471 287.19560021 -119.14404297 266.10742188 C-128.31665966 259.80039097 -136.61851084 252.21060729 -144.375 244.25 C-144.94347656 243.72664062 -145.51195312 243.20328125 -146.09765625 242.6640625 C-163.78684223 225.99473018 -175.55279567 201.5908013 -181.375 178.25 C-181.64570313 177.1976416 -181.64570313 177.1976416 -181.921875 176.12402344 C-191.4468597 137.91145814 -183.67711215 98.62501061 -163.85620117 65.14477539 C-158.53740724 56.41933772 -152.31226927 48.733269 -145.375 41.25 C-144.12396484 39.89261719 -144.12396484 39.89261719 -142.84765625 38.5078125 C-124.62658234 19.54844548 -99.89919686 5.51950241 -74.375 -0.75 C-73.59415039 -0.94464844 -72.81330078 -1.13929687 -72.00878906 -1.33984375 C-48.46123802 -6.96698207 -23.26128451 -6.87168221 0 0 Z " fill="#FEC604" transform="translate(287.375,106.75)"/>
<path d="M0 0 C1.96164036 1.35960388 1.96164036 1.35960388 3.82069397 3.08374023 C4.50986971 3.71762665 5.19904545 4.35151306 5.9091053 5.00460815 C6.59910055 5.66308746 7.2890958 6.32156677 8 7 C8.63680632 7.60586945 9.27361263 8.21173889 9.92971611 8.83596802 C11.92537019 10.76177252 13.89943884 12.70757867 15.86889648 14.66015625 C16.98014641 15.7567305 16.98014641 15.7567305 18.11384583 16.87545776 C20.53604291 19.26801516 22.95420505 21.66458079 25.37109375 24.0625 C26.20098375 24.88581818 27.03087376 25.70913635 27.88591194 26.55740356 C32.26716351 30.90621978 36.64444359 35.25899598 41.01928711 39.61425781 C44.6359051 43.21298753 48.26086875 46.80298635 51.89331055 50.38574219 C56.29243464 54.72478658 60.6767573 59.07827238 65.05079842 63.44259644 C66.71667892 65.09991318 68.38769269 66.75208675 70.0639019 68.3989563 C72.40248877 70.69875182 74.72155707 73.01664661 77.03686523 75.33984375 C78.07860397 76.35158157 78.07860397 76.35158157 79.14138794 77.38375854 C81.96517609 80.25104243 83.83780036 82.64607284 85.52456665 86.32667542 C84.62873287 92.59983108 79.94625525 96.14720373 75.57006836 100.43334961 C74.54380017 101.46718555 73.51925381 102.50273314 72.49630737 103.53985596 C69.71466584 106.3494254 66.90849063 109.13323156 64.09642863 111.91231227 C61.15715362 114.82388864 58.23822241 117.75573734 55.31629944 120.68470764 C50.40618115 125.60023043 45.48012832 130.49933007 40.54418945 135.38891602 C34.8376496 141.04223553 29.15638146 146.72000983 23.48815626 152.41172594 C18.03511955 157.88632108 12.56526187 163.34379972 7.0873127 168.79345894 C4.75623164 171.11302267 2.43109794 173.43831741 0.1105175 175.76838493 C-2.62304476 178.51149211 -5.37104644 181.23926535 -8.13090897 183.9559021 C-9.14143639 184.95530035 -10.14691373 185.9598347 -11.14689064 186.96978951 C-12.51257122 188.34738064 -13.8985951 189.70471534 -15.28553772 191.06089783 C-16.44064897 192.20871939 -16.44064897 192.20871939 -17.6190958 193.37972927 C-20.68204876 195.46415293 -22.36284439 195.54869636 -26 195 C-28.06576347 193.68928337 -28.06576347 193.68928337 -29.94845581 191.81344604 C-30.67190689 191.10691391 -31.39535797 190.40038177 -32.14073181 189.67243958 C-32.91397293 188.88705307 -33.68721405 188.10166656 -34.48388672 187.29248047 C-35.31381638 186.47306473 -36.14374603 185.65364899 -36.99882507 184.80940247 C-39.74107932 182.09358019 -42.46077583 179.35636446 -45.1796875 176.6171875 C-47.07596161 174.72495396 -48.973104 172.83362424 -50.87112427 170.94314575 C-54.8477951 166.97738657 -58.81165759 162.99915393 -62.76855469 159.01367188 C-67.34154037 154.40803314 -71.9357414 149.82440942 -76.54156101 145.25162399 C-80.49754113 141.322884 -84.44169294 137.38255625 -88.37622082 133.43233216 C-90.72526093 131.07394441 -93.07929023 128.72100355 -95.44173813 126.37603378 C-98.07343385 123.75954683 -100.68517389 121.12464762 -103.29248047 118.48388672 C-104.07786697 117.7106456 -104.86325348 116.93740448 -105.67243958 116.14073181 C-108.5536246 113.19055259 -110.6822554 110.96063465 -111.98660278 107.01721191 C-110.33753975 101.97407529 -106.6650802 98.8857986 -102.921875 95.24072266 C-102.06356079 94.38153229 -101.20524658 93.52234192 -100.32092285 92.63711548 C-97.96789411 90.28754877 -95.60235288 87.95207836 -93.23023987 85.62187624 C-90.75312946 83.18229489 -88.29302032 80.72569076 -85.83105469 78.27084351 C-81.16807367 73.62650494 -76.49001104 68.99767125 -71.80633163 64.37421739 C-66.47418103 59.10915057 -61.15907463 53.82701924 -55.84532928 48.54338765 C-44.91573656 37.67649633 -33.96494401 26.83122704 -23 16 C-24.7079471 12.22205251 -26.7307183 10.5516345 -30 8 C-31.875 6 -31.875 6 -33 4 C-32.6875 1.75 -32.6875 1.75 -32 0 C-27.35055592 0.46082986 -25.45273492 2.13051194 -22.3125 5.5 C-19.4714243 8.67196677 -19.4714243 8.67196677 -16 11 C-15.7421875 10.41605469 -15.484375 9.83210937 -15.21875 9.23046875 C-13.90301636 6.82250751 -12.45841408 5.22527307 -10.5 3.3125 C-9.8915625 2.71050781 -9.283125 2.10851562 -8.65625 1.48828125 C-5.55622319 -1.29735605 -3.92519824 -1.13415325 0 0 Z " fill="#FEFEFC" transform="translate(257,152)"/>
<path d="M0 0 C3.26603954 1.63301977 4.77843251 2.52940605 7.2144165 4.97390747 C7.82573425 5.58247589 8.437052 6.19104431 9.06689453 6.8180542 C9.7257666 7.48411682 10.38463867 8.15017944 11.06347656 8.83642578 C12.11773834 9.89024948 12.11773834 9.89024948 13.19329834 10.96536255 C15.51384625 13.28730311 17.8272308 15.61624628 20.140625 17.9453125 C21.74872947 19.55714732 23.35727625 21.16854097 24.96624756 22.7795105 C29.19897265 27.01987029 33.42565715 31.26620206 37.65112305 35.51379395 C41.96431271 39.84744543 46.28317249 44.17543788 50.6015625 48.50390625 C59.07327591 56.99706673 67.53862033 65.49654528 76 74 C75.67 74.66 75.34 75.32 75 76 C74.3100293 75.82984375 73.62005859 75.6596875 72.90917969 75.484375 C57.99624023 71.8182977 43.05990974 68.30350577 28.0625 65 C13.21197599 61.72825194 -1.60111284 58.32286851 -16.40429688 54.84228516 C-22.55776855 53.40084862 -28.71632556 51.98151423 -34.875 50.5625 C-35.99986816 50.3032373 -37.12473633 50.04397461 -38.28369141 49.77685547 C-40.85572072 49.18425014 -43.42781689 48.59193736 -46 48 C-44.63886987 44.95418514 -43.10669904 42.86160974 -40.74365234 40.51660156 C-40.08311859 39.85621887 -39.42258484 39.19583618 -38.74203491 38.51544189 C-38.03052277 37.81425232 -37.31901062 37.11306274 -36.5859375 36.390625 C-35.85629791 35.66381531 -35.12665833 34.93700562 -34.37490845 34.18817139 C-32.0462612 31.87070802 -29.71075174 29.5603005 -27.375 27.25 C-25.79381347 25.67884556 -24.21307875 24.10723629 -22.6328125 22.53515625 C-18.7604331 18.68481347 -14.88239829 14.84023883 -11 11 C-7.18213176 12.74328281 -5.63127021 14.71091224 -3 18 C-1.00810669 19.83550499 1.03838895 21.59544574 3.09375 23.359375 C5.17573081 25.15124373 7.17355425 26.94524853 9 29 C9 29.66 9 30.32 9 31 C9.639375 31.268125 10.27875 31.53625 10.9375 31.8125 C13 33 13 33 14 36 C14.66 36 15.32 36 16 36 C16 36.66 16 37.32 16 38 C17.32 38.66 18.64 39.32 20 40 C19.95359375 40.59167969 19.9071875 41.18335938 19.859375 41.79296875 C19.67625922 45.80189647 19.70841146 48.40467339 21.5 52.0625 C24.36204864 54.28058769 26.40784871 54.73078897 30.02734375 54.48046875 C33.55479057 53.62130844 35.00100675 51.93602134 37 49 C37.77773898 44.6446617 37.54189938 42.80410875 35.0625 39.125 C31.885438 36.920508 31.35164897 36.81884103 27.76000977 36.76977539 C22.11831062 36.24223192 19.53039413 33.57523941 15.77734375 29.55859375 C15.14639297 28.91632339 14.5154422 28.27405304 13.8653717 27.61231995 C11.86971972 25.57216069 9.90380749 23.5059158 7.9375 21.4375 C6.58325649 20.04309717 5.22715348 18.65049774 3.86914062 17.25976562 C0.55754657 13.86033293 -2.72767159 10.43722915 -6 7 C-4.02 4.69 -2.04 2.38 0 0 Z " fill="#FDC60A" transform="translate(253,164)"/>
<path d="M0 0 C5.05655624 2.24522611 8.60834358 5.23169921 10.87109375 10.3515625 C11.64806026 15.79032806 10.94738683 19.77203288 8.265625 24.5859375 C4.9376893 28.79945833 0.5230239 30.11557248 -4.62890625 30.8515625 C-10.48360833 30.01517649 -14.5790665 28.06036017 -18.56640625 23.6640625 C-20.76478698 19.00349536 -22.15029581 14.41573118 -20.46484375 9.359375 C-16.11609025 1.12149235 -9.01298011 -2.74523798 0 0 Z " fill="#111111" transform="translate(76.12890625,153.6484375)"/>
<path d="M0 0 C4.94771578 1.97908631 8.62739982 6.25479964 11 11 C11.58748316 16.64887653 11.33473828 21.22020846 8 26 C3.19017707 29.70757184 -0.72301031 31.44902555 -6.875 31.3359375 C-10.75513739 30.72253343 -13.32590648 28.8027208 -16 26 C-19.38434839 21.22796894 -20.76424571 16.89560975 -20 11 C-18.42847845 6.37787778 -16.11643327 3.55911744 -12.09765625 0.9140625 C-8.12510885 -0.81699167 -4.22221844 -0.64735887 0 0 Z " fill="#0D0D0D" transform="translate(154,60)"/>
<path d="M0 0 C2.875 1.5625 2.875 1.5625 5 4 C5.9375 7.5625 5.9375 7.5625 6 11 C5.01 12.485 5.01 12.485 4 14 C4.28157937 17.62443184 5.95673446 19.23506554 8.5625 21.625 C9.74334995 22.71318768 10.89810336 23.83193202 12 25 C12 25.66 12 26.32 12 27 C9.5 28.0625 9.5 28.0625 6 28 C3.71170089 25.82567747 1.83931168 23.51556054 -0.0703125 21.00390625 C-0.70710938 20.34261719 -1.34390625 19.68132813 -2 19 C-3.32 19 -4.64 19 -6 19 C-5.7834375 19.60328125 -5.566875 20.2065625 -5.34375 20.828125 C-5.0653125 21.62734375 -4.786875 22.4265625 -4.5 23.25 C-4.2215625 24.03890625 -3.943125 24.8278125 -3.65625 25.640625 C-3 28 -3 28 -3 32 C-5.475 32.495 -5.475 32.495 -8 33 C-9.31458266 28.91733418 -10.62630532 24.83375505 -11.9375 20.75 C-12.31068359 19.59113281 -12.68386719 18.43226562 -13.06835938 17.23828125 C-13.42607422 16.12324219 -13.78378906 15.00820313 -14.15234375 13.859375 C-14.48226318 12.83295898 -14.81218262 11.80654297 -15.15209961 10.74902344 C-15.8431994 8.50837165 -16.46305324 6.28142713 -17 4 C-6.02727273 -0.94545455 -6.02727273 -0.94545455 0 0 Z " fill="#0F0F0F" transform="translate(192,42)"/>
<path d="M0 0 C3.62892563 4.16530263 6.50205547 8.5061664 8.25 13.75 C7.9800302 17.25960742 7.1768885 19.314095 4.74609375 21.91015625 C1.33657442 24.0382455 -2.11337008 23.34805641 -6 23 C-8.97 28.445 -8.97 28.445 -12 34 C-13.32 33.34 -14.64 32.68 -16 32 C-15.4724877 27.77990163 -13.87714405 24.62618415 -11.83984375 20.96484375 C-10.7379756 18.74311945 -10.7379756 18.74311945 -11 15 C-14.63 17.31 -18.26 19.62 -22 22 C-22.99 21.01 -23.98 20.02 -25 19 C-25 18.34 -25 17.68 -25 17 C-23.42700195 15.64306641 -23.42700195 15.64306641 -21.23828125 14.1015625 C-20.44873047 13.53953125 -19.65917969 12.9775 -18.84570312 12.3984375 C-18.00974609 11.81320313 -17.17378906 11.22796875 -16.3125 10.625 C-14.68278621 9.47249522 -13.05385904 8.31887719 -11.42578125 7.1640625 C-10.65572754 6.62040039 -9.88567383 6.07673828 -9.09228516 5.51660156 C-7.3652977 4.26478755 -5.69524749 2.93482556 -4.04296875 1.5859375 C-2 0 -2 0 0 0 Z " fill="#0C0C0C" transform="translate(413,109)"/>
<path d="M0 0 C2.9375 1.5625 2.9375 1.5625 5 4 C5 6.31 5 8.62 5 11 C9.62 11.66 14.24 12.32 19 13 C18.34 14.65 17.68 16.3 17 18 C12.05 17.67 7.1 17.34 2 17 C1.67 17.99 1.34 18.98 1 20 C1.53625 20.2475 2.0725 20.495 2.625 20.75 C5.56424252 22.29696975 8.25754408 24.13014369 11 26 C10.34 27.32 9.68 28.64 9 30 C5.28289683 28.64356298 2.1945803 26.95339775 -1.08203125 24.7421875 C-2.01337891 24.11699219 -2.94472656 23.49179688 -3.90429688 22.84765625 C-4.86400391 22.19667969 -5.82371094 21.54570312 -6.8125 20.875 C-7.79154297 20.21628906 -8.77058594 19.55757812 -9.77929688 18.87890625 C-12.18903347 17.25674211 -14.59578494 15.63033154 -17 14 C-15.76575918 10.83028213 -14.55597931 8.07604608 -12.5625 5.3125 C-12.15128906 4.73113281 -11.74007812 4.14976563 -11.31640625 3.55078125 C-7.94166557 -0.42480347 -4.93526962 -0.51054513 0 0 Z " fill="#0B0B0B" transform="translate(91,117)"/>
<path d="M0 0 C3.81487393 1.34213538 6.45613865 3.32017331 9 6.5 C10.09578609 9.23946523 10.09659065 10.30836841 9 13 C7.68 13 6.36 13 5 13 C3.4375 10.625 3.4375 10.625 2 8 C-1.7373856 5.5084096 -3.57331583 5.54206715 -8 6 C-10.75329021 7.79562405 -12.52627461 9.05254922 -14 12 C-14.53946819 17.51835765 -14.53946819 17.51835765 -12.5 22.4375 C-8.98174839 24.63640725 -6.12523715 24.72498419 -2 25 C-1.34 23.68 -0.68 22.36 0 21 C-1.32 20.67 -2.64 20.34 -4 20 C-3.34 18.68 -2.68 17.36 -2 16 C1.48539917 16.64544429 4.02819057 18.10134397 7 20 C5.61219205 23.89006773 3.7847773 26.96558708 1.375 30.3125 C0.74335938 31.19550781 0.11171875 32.07851562 -0.5390625 32.98828125 C-1.02117187 33.65214844 -1.50328125 34.31601563 -2 35 C-3.32 34.34 -4.64 33.68 -6 33 C-5.67 32.01 -5.34 31.02 -5 30 C-6.03125 30.103125 -7.0625 30.20625 -8.125 30.3125 C-13.22786469 29.90097865 -14.43581347 28.56418653 -18 25 C-20.97982138 20.53026793 -20.60816742 16.24075136 -20 11 C-15.73320822 2.30838711 -9.31526539 -1.09770721 0 0 Z " fill="#0B0B0B" transform="translate(363,65)"/>
<path d="M0 0 C2.5 1.5 2.5 1.5 4 4 C4.71446033 8.28676201 4.86040208 10.53781381 2.6484375 14.296875 C1.17915587 16.26055945 -0.40392237 18.13790943 -2 20 C0.64 22.64 3.28 25.28 6 28 C4.68 29.32 3.36 30.64 2 32 C-4.93 25.07 -11.86 18.14 -19 11 C-15.15129305 3.3025861 -8.72285392 -1.6262948 0 0 Z " fill="#090909" transform="translate(118,87)"/>
<path d="M0 0 C0.3383344 2.37438249 0.67079002 4.74934959 1 7.125 C1.09539062 7.79015625 1.19078125 8.4553125 1.2890625 9.140625 C1.83611453 13.12628981 2.10022182 16.97859938 2 21 C0.35 21 -1.3 21 -3 21 C-4.41634833 18.16730334 -4.3463005 15.52533562 -4.5625 12.375 C-4.64628906 11.18648437 -4.73007812 9.99796875 -4.81640625 8.7734375 C-4.87699219 7.85820312 -4.93757813 6.94296875 -5 6 C-7.31 6.33 -9.62 6.66 -12 7 C-11.67 11.29 -11.34 15.58 -11 20 C-12.65 20 -14.3 20 -16 20 C-17.26237731 17.47524538 -17.09856404 15.68799534 -17.0625 12.875 C-17.05347656 11.96492187 -17.04445313 11.05484375 -17.03515625 10.1171875 C-17.02355469 9.41851562 -17.01195312 8.71984375 -17 8 C-19.64 8 -22.28 8 -25 8 C-24.34 13.28 -23.68 18.56 -23 24 C-24.98 24 -26.96 24 -29 24 C-29.33868777 21.79248152 -29.67071689 19.58394089 -30 17.375 C-30.185625 16.14523438 -30.37125 14.91546875 -30.5625 13.6484375 C-30.95402516 10.3833973 -31.08080924 7.28287549 -31 4 C-28.00025462 3.51919404 -25.00022231 3.04031318 -22 2.5625 C-20.74123047 2.36043945 -20.74123047 2.36043945 -19.45703125 2.15429688 C-5.90072409 0 -5.90072409 0 0 0 Z " fill="#101010" transform="translate(456,203)"/>
<path d="M0 0 C10.63616368 0.97174038 10.63616368 0.97174038 15.0625 2 C15.79597656 2.165 16.52945312 2.33 17.28515625 2.5 C19 3 19 3 20 4 C20.04063832 5.66617115 20.042721 7.33388095 20 9 C14.49191603 8.40984815 9.35121931 7.43336231 4 6 C4 8.31 4 10.62 4 13 C7.3 13.66 10.6 14.32 14 15 C14.33 15.99 14.66 16.98 15 18 C14.34 18.99 13.68 19.98 13 21 C9.04 20.01 5.08 19.02 1 18 C0.67 20.64 0.34 23.28 0 26 C0.58007812 26.04898438 1.16015625 26.09796875 1.7578125 26.1484375 C6.43923092 26.59649405 10.57485459 27.298021 15 29 C14.67 30.65 14.34 32.3 14 34 C9.50593041 33.28786282 5.07140387 32.40228575 0.625 31.4375 C-1.24285156 31.03337891 -1.24285156 31.03337891 -3.1484375 30.62109375 C-4.08945312 30.41613281 -5.03046875 30.21117188 -6 30 C-5.31261551 23.36318424 -3.95828166 16.99207631 -2.4375 10.5 C-2.20353516 9.48679687 -1.96957031 8.47359375 -1.72851562 7.4296875 C-1.15590618 4.95227521 -0.57965985 2.47577035 0 0 Z " fill="#0F0F0F" transform="translate(288,36)"/>
<path d="M0 0 C6.18731176 6.18731176 8.79057895 20.41181321 9.1796875 28.85546875 C8.92605088 31.88256672 8.02157649 33.75380391 6 36 C2.87139505 37.56430248 0.44397075 37.35627284 -3 37 C-6.2752407 34.31262302 -6.92192711 32.63573639 -7.4375 28.4375 C-6.90667826 18.68136255 -3.19207708 9.13873845 0 0 Z " fill="#FDFBF1" transform="translate(344,255)"/>
<path d="M0 0 C4.51761819 4.01941989 6.86340158 9.7495635 9.6875 15 C10.29400391 16.10601562 10.90050781 17.21203125 11.52539062 18.3515625 C12.09837891 19.41117188 12.67136719 20.47078125 13.26171875 21.5625 C13.78725342 22.53316406 14.31278809 23.50382812 14.85424805 24.50390625 C16 27 16 27 16 30 C14.35 30 12.7 30 11 30 C10.67 29.01 10.34 28.02 10 27 C6.37 27.66 2.74 28.32 -1 29 C-1.33 29.99 -1.66 30.98 -2 32 C-3.65 32 -5.3 32 -7 32 C-6.32646876 24.97481339 -4.69695944 18.3255596 -2.9375 11.5 C-2.65583984 10.39140625 -2.37417969 9.2828125 -2.08398438 8.140625 C-1.39361604 5.4259563 -0.69885625 2.71249362 0 0 Z " fill="#0C0C0C" transform="translate(223,33)"/>
<path d="M0 0 C4.19565992 0.81270263 5.73756982 2.17492389 8.48046875 5.48046875 C9.67436411 9.41330052 9.92846339 11.44300747 8.29296875 15.23046875 C5.59637324 18.57796662 3.94222968 20.25802687 -0.39453125 20.91796875 C-5.14464241 20.25295319 -8.18418626 17.81581374 -11.51953125 14.48046875 C-12.25584758 10.12250348 -11.95218985 6.44411745 -10.14453125 2.41796875 C-6.68412852 -0.13613803 -4.23066262 -0.2312179 0 0 Z " fill="#F9F9F9" transform="translate(72.51953125,158.51953125)"/>
<path d="M0 0 C3.86385775 0.85255161 6.04158166 3.15705861 8.2421875 6.30078125 C9.5409079 10.31500794 9.42499704 13.33610027 7.6796875 17.17578125 C5.06617599 20.53601034 3.21848792 21.22965945 -0.9453125 21.86328125 C-5.3385496 21.24822806 -6.91597219 19.5067648 -10.0703125 16.42578125 C-11.81496698 12.93647229 -11.63481802 9.23291148 -11.0703125 5.42578125 C-8.06867861 0.82952936 -5.28508668 -0.34901516 0 0 Z " fill="#F9F9F9" transform="translate(151.0703125,64.57421875)"/>
<path d="M0 0 C1.32 0.66 2.64 1.32 4 2 C3.67 2.639375 3.34 3.27875 3 3.9375 C1.66863449 8.01480686 1.33267336 11.74976487 2 16 C3.87620613 18.50160818 5.23891303 19.61945652 8 21 C11.94796574 21.3724496 14.33040033 21.34935635 17.875 19.5 C20.7343589 16.13604835 21.04441472 13.33487713 21 9 C20.66499921 6.63306283 20.66499921 6.63306283 20 5 C21.32 4.34 22.64 3.68 24 3 C26.58588665 5.58588665 27.00623721 7.05346177 27.4375 10.75 C27.19914116 16.07334751 25.44416883 20.69197851 21.52734375 24.390625 C16.76479792 27.5881735 11.57015393 27.92835899 6 27 C1.34297656 24.54447855 -2.31667974 22.04996079 -4 17 C-4.9843772 6.72052004 -4.9843772 6.72052004 -2 2.3125 C-1.34 1.549375 -0.68 0.78625 0 0 Z " fill="#0D0D0D" transform="translate(49,198)"/>
<path d="M0 0 C5.94 0 11.88 0 18 0 C18 1.65 18 3.3 18 5 C16.02 5 14.04 5 12 5 C12.01160156 5.70382813 12.02320313 6.40765625 12.03515625 7.1328125 C12.10826019 15.13247248 11.66028987 23.02935805 11 31 C9.35 31 7.7 31 6 31 C5.97275577 28.16660035 5.95304411 25.33346883 5.9375 22.5 C5.92912109 21.70851563 5.92074219 20.91703125 5.91210938 20.1015625 C5.89108815 14.97238283 6.26062713 10.07663894 7 5 C4.69 5 2.38 5 0 5 C0 3.35 0 1.7 0 0 Z " fill="#131313" transform="translate(251,32)"/>
<path d="M0 0 C0.33 1.32 0.66 2.64 1 4 C-5.93 7.3 -12.86 10.6 -20 14 C-20 17.69901005 -18.66449492 19.74036412 -17 23 C-17 23.66 -17 24.32 -17 25 C-18.65 25.33 -20.3 25.66 -22 26 C-23.01034498 24.25595212 -24.00792422 22.50450439 -25 20.75 C-25.556875 19.77546875 -26.11375 18.8009375 -26.6875 17.796875 C-28 15 -28 15 -28 11 C-23.90359442 8.96314521 -19.79674427 6.94831116 -15.6875 4.9375 C-14.52025391 4.35677734 -13.35300781 3.77605469 -12.15039062 3.17773438 C-11.03212891 2.63310547 -9.91386719 2.08847656 -8.76171875 1.52734375 C-7.73006592 1.01937256 -6.69841309 0.51140137 -5.63549805 -0.01196289 C-3 -1 -3 -1 0 0 Z " fill="#0E0E0E" transform="translate(436,145)"/>
<path d="M0 0 C2.3125 1.5 2.3125 1.5 4 4 C4.63857688 7.52636345 4.65841319 10.76063399 2.9375 14 C-0.02087678 15.52690415 -2.73716599 15.18468872 -6 15 C-5.67 17.31 -5.34 19.62 -5 22 C-5.66 22 -6.32 22 -7 22 C-9.12936719 15.45980079 -10.03913702 8.79759451 -11 2 C-10.38125 1.855625 -9.7625 1.71125 -9.125 1.5625 C-2.22262774 -0.26459854 -2.22262774 -0.26459854 0 0 Z " fill="#242424" transform="translate(290,428)"/>
<path d="M0 0 C0.66 0 1.32 0 2 0 C3.28006797 1.78398614 4.47660351 3.62853906 5.625 5.5 C6.25664062 6.5209375 6.88828125 7.541875 7.5390625 8.59375 C8.02117187 9.3878125 8.50328125 10.181875 9 11 C8.21625 11.61875 7.4325 12.2375 6.625 12.875 C4.03162353 14.89858661 4.03162353 14.89858661 2 17 C-0.3125 17.4375 -0.3125 17.4375 -3 17 C-6.65751856 14.31781973 -7.86092581 12.8962559 -8.5625 8.375 C-8 5 -8 5 -6.25 3.0625 C-4 2 -4 2 0 2 C0 1.34 0 0.68 0 0 Z " fill="#1B1B1B" transform="translate(350,402)"/>
<path d="M0 0 C2.375 1.5625 2.375 1.5625 4 4 C4.56783945 7.97487617 4.62340519 10.06489221 2.375 13.4375 C-0.7370662 15.48491197 -2.34394496 15.68551032 -6 15 C-8.4375 12.9375 -8.4375 12.9375 -10 10 C-9.93931504 6.48027215 -9.66225706 4.08052467 -7.8125 1.0625 C-5.04411529 -0.56034621 -3.14454533 -0.44922076 0 0 Z " fill="#303030" transform="translate(247,432)"/>
<path d="M0 0 C3.05623277 2.09110663 3.86463014 3.29306849 4.5625 6.9375 C3.79395747 11.12178713 2.46194162 12.56927503 -1 15 C-4.6875 15 -4.6875 15 -8 14 C-10.48038907 10.2794164 -10.46337203 8.40203429 -10 4 C-7.26646839 -0.10029741 -4.80388991 -0.80064832 0 0 Z " fill="#F4F4F4" transform="translate(169,412)"/>
<path d="M0 0 C3.4375 1 3.4375 1 5.375 2.6875 C6.79045627 5.76819895 6.99629958 7.64720251 6.4375 11 C4.0230817 13.62136844 2.35988403 14.79752546 -1.125 15.5625 C-3.5625 15 -3.5625 15 -5.875 12.875 C-7.85534835 9.50107319 -8.21704929 7.84547708 -7.5625 4 C-5.27647022 0.43379354 -4.27192374 0 0 0 Z " fill="#F5F5F5" transform="translate(311.5625,422)"/>
<path d="M0 0 C1.32 0.66 2.64 1.32 4 2 C2.37762671 5.92933185 -0.31769544 8.75818391 -3.1875 11.8125 C-3.67710205 12.34004883 -4.1667041 12.86759766 -4.67114258 13.41113281 C-8.35858472 17.3659039 -12.13360798 21.2195278 -16 25 C-17.32 24.34 -18.64 23.68 -20 23 C-19.45634458 19.01583909 -17.56534815 17.21636772 -14.74609375 14.453125 C-13.89208984 13.60878906 -13.03808594 12.76445313 -12.15820312 11.89453125 C-11.26037109 11.02183594 -10.36253906 10.14914063 -9.4375 9.25 C-8.53580078 8.36183594 -7.63410156 7.47367187 -6.70507812 6.55859375 C-4.47662902 4.36551685 -2.24148407 2.17973956 0 0 Z " fill="#151515" transform="translate(393,90)"/>
<path d="M0 0 C0.33 1.32 0.66 2.64 1 4 C-1.59199018 5.72799346 -3.05418001 6.4343448 -5.94921875 7.21875 C-6.71556641 7.42886719 -7.48191406 7.63898438 -8.27148438 7.85546875 C-9.46741211 8.17451172 -9.46741211 8.17451172 -10.6875 8.5 C-11.46544922 8.71269531 -12.24339844 8.92539063 -13.04492188 9.14453125 C-18.0141277 10.49562474 -23.000562 11.76585302 -28 13 C-28.33 11.35 -28.66 9.7 -29 8 C-23.6712029 5.89068448 -18.26812002 4.0617485 -12.8125 2.3125 C-12.12349609 2.08602783 -11.43449219 1.85955566 -10.72460938 1.6262207 C-7.04810817 0.46374519 -3.86159064 -0.27743467 0 0 Z " fill="#111111" transform="translate(449,178)"/>
<path d="M0 0 C-0.53676912 5.0261109 -2.94418501 8.62239409 -5.5625 12.8125 C-5.98724609 13.50537109 -6.41199219 14.19824219 -6.84960938 14.91210938 C-7.89309456 16.61216951 -8.94565296 18.30665476 -10 20 C-11 17 -11 17 -10.375 14.5 C-10.25125 13.675 -10.1275 12.85 -10 12 C-11.37514541 10.2912354 -11.37514541 10.2912354 -13 9 C-13 8.34 -13 7.68 -13 7 C-15.31 7.66 -17.62 8.32 -20 9 C-20 8.01 -20 7.02 -20 6 C-17.41958904 4.99183944 -14.83613056 3.9932889 -12.25 3 C-11.15558594 2.57074219 -11.15558594 2.57074219 -10.0390625 2.1328125 C-9.33007812 1.86210937 -8.62109375 1.59140625 -7.890625 1.3125 C-7.24125977 1.06113281 -6.59189453 0.80976563 -5.92285156 0.55078125 C-4 0 -4 0 0 0 Z " fill="#252525" transform="translate(118,365)"/>
<path d="M0 0 C3.375 1.0625 3.375 1.0625 5.375 2.75 C6.75900688 5.95051592 6.44621594 7.77743777 5.375 11.0625 C3.31640625 12.2421875 3.31640625 12.2421875 1.375 13.0625 C0.86839844 12.19625 0.86839844 12.19625 0.3515625 11.3125 C-0.31746094 10.19875 -0.31746094 10.19875 -1 9.0625 C-1.66128906 7.94875 -1.66128906 7.94875 -2.3359375 6.8125 C-2.76132813 6.235 -3.18671875 5.6575 -3.625 5.0625 C-4.285 5.0625 -4.945 5.0625 -5.625 5.0625 C-5.295 7.3725 -4.965 9.6825 -4.625 12.0625 C-3.635 12.3925 -2.645 12.7225 -1.625 13.0625 C-1.625 13.7225 -1.625 14.3825 -1.625 15.0625 C-3.89529534 14.67106977 -5.45908198 14.17508722 -7.375 12.875 C-9.28789487 10.10130244 -9.15168369 8.35427306 -8.625 5.0625 C-5.92665364 1.21940065 -4.75860157 0.08204485 0 0 Z " fill="#252525" transform="translate(86.625,333.9375)"/>
<path d="M0 0 C0 4 0 4 -2.5 6.625 C-3.325 7.40875 -4.15 8.1925 -5 9 C-5 9.66 -5 10.32 -5 11 C-3.02 11 -1.04 11 1 11 C1.33 9.02 1.66 7.04 2 5 C2.66 5 3.32 5 4 5 C4.35882213 8.22939919 4.27258004 9.61209763 2.375 12.3125 C0 14 0 14 -2.9375 14.625 C-6 14 -6 14 -8.9375 11.375 C-11 8 -11 8 -11.0625 4.8125 C-8.82587635 -1.10797436 -5.83315543 -1.45828886 0 0 Z " fill="#151515" transform="translate(385,379)"/>
<path d="M0 0 C4.63994911 1.07713104 4.63994911 1.07713104 6.5 3.8125 C6.5 4.4725 6.5 5.1325 6.5 5.8125 C5.943125 5.503125 5.38625 5.19375 4.8125 4.875 C2.37459567 3.75488179 0.13775814 3.25212636 -2.5 2.8125 C-5.26228674 5.93097635 -5.87243224 7.85566856 -5.75 12 C-5.73453125 12.88042969 -5.7190625 13.76085937 -5.703125 14.66796875 C-5.73164091 16.79328543 -5.73164091 16.79328543 -4.5 17.8125 C-1.13370749 17.95886054 1.28419562 17.88443479 4.5 16.8125 C4.5 17.8025 4.5 18.7925 4.5 19.8125 C0.97427193 22.16298538 -0.35013645 22.47647817 -4.5 21.8125 C-7.41247133 19.27991623 -9.11816605 17.62801235 -9.9140625 13.84375 C-10.11123656 9.18327215 -9.05079716 5.78040669 -6.5 1.8125 C-3.5 -0.1875 -3.5 -0.1875 0 0 Z " fill="#2E2E2E" transform="translate(221.5,423.1875)"/>
<path d="M0 0 C0 0.66 0 1.32 0 2 C-0.804375 2.226875 -1.60875 2.45375 -2.4375 2.6875 C-5.17156108 3.76389674 -5.17156108 3.76389674 -6.125 6.3125 C-6.26494663 9.26558763 -6.26494663 9.26558763 -3.625 11.75 C-2.75875 12.4925 -1.8925 13.235 -1 14 C-0.67 14.33 -0.34 14.66 0 15 C3.5 15.16666667 3.5 15.16666667 7 15 C8.96822886 13.03177114 8.66248381 9.65191291 9 7 C9.66 7 10.32 7 11 7 C12.03320308 10.70231104 12.341294 12.36007375 10.5 15.8125 C7.2275076 18.67593085 5.33159956 19.07468275 1 19 C-3.29519019 16.8102952 -6.56546569 14.18739902 -9 10 C-8.93883409 6.45237749 -8.686726 4.0644253 -6.75 1.0625 C-4.41628148 -0.35440053 -2.67863922 -0.21718696 0 0 Z " fill="#292929" transform="translate(403,343)"/>
<path d="M0 0 C0 0.66 0 1.32 0 2 C-1.98 2.66 -3.96 3.32 -6 4 C-5.649375 4.53625 -5.29875 5.0725 -4.9375 5.625 C-3.6100335 8.98791514 -3.72724738 10.60599301 -5 14 C-8.89193866 16.89014124 -12.15646828 18 -17 18 C-17 17.34 -17 16.68 -17 16 C-13.7 14.68 -10.4 13.36 -7 12 C-7 10.35 -7 8.7 -7 7 C-8.41702513 7.14230808 -9.8336096 7.28900746 -11.25 7.4375 C-12.03890625 7.51871094 -12.8278125 7.59992188 -13.640625 7.68359375 C-15.82364639 7.97634993 -17.8773182 8.42064419 -20 9 C-19.67 8.01 -19.34 7.02 -19 6 C-16.55904728 4.78982923 -14.22356988 3.77331225 -11.6875 2.8125 C-11.01009766 2.53986328 -10.33269531 2.26722656 -9.63476562 1.98632812 C-6.17582054 0.63723811 -3.75980229 0 0 0 Z " fill="#303030" transform="translate(87,309)"/>
<path d="M0 0 C2.5625 0.3125 2.5625 0.3125 4.375 1.4375 C6.10708662 4.17237361 5.96623601 6.14990129 5.5625 9.3125 C2.5625 11.3125 2.5625 11.3125 0 11.125 C-2.4375 10.3125 -2.4375 10.3125 -4.4375 7.3125 C-4.6875 4.75 -4.6875 4.75 -4.4375 2.3125 C-2.4375 0.3125 -2.4375 0.3125 0 0 Z " fill="#F4F4F4" transform="translate(348.4375,405.6875)"/>
<path d="M0 0 C3.29714793 0.32971479 4.6226839 0.6226839 7 3 C7.25 6 7.25 6 7 9 C5 11 5 11 2.5625 11.375 C0 11 0 11 -1.875 9.3125 C-3.30124388 6.38077646 -3.04230389 5.04673446 -2 2 C-1.34 1.34 -0.68 0.68 0 0 Z " fill="#F3F3F3" transform="translate(285,430)"/>
<path d="M0 0 C3.4375 1.5625 3.4375 1.5625 6 3 C6 3.66 6 4.32 6 5 C5.154375 4.690625 4.30875 4.38125 3.4375 4.0625 C-0.0497854 2.98461179 -3.38177535 2.43418696 -7 2 C-7.67154684 4.28341743 -7.67154684 4.28341743 -7 7 C-5.01010728 8.53605754 -2.96718199 9.70499154 -0.75 10.88671875 C-0.1725 11.25410156 0.405 11.62148438 1 12 C1 12.66 1 13.32 1 14 C-3.73789165 12.55676531 -7.98858151 10.62773267 -12.375 8.375 C-13.01566406 8.05015625 -13.65632813 7.7253125 -14.31640625 7.390625 C-15.87947501 6.59742593 -17.44000622 5.79922969 -19 5 C-18.34 4.34 -17.68 3.68 -17 3 C-13.535 4.485 -13.535 4.485 -10 6 C-9.87625 5.030625 -9.7525 4.06125 -9.625 3.0625 C-9.41875 2.051875 -9.2125 1.04125 -9 0 C-5.84651502 -1.57674249 -3.39455853 -0.67891171 0 0 Z " fill="#191919" transform="translate(422,327)"/>
<path d="M0 0 C2.5 0.25 2.5 0.25 4.5 2.25 C4.83661952 5.4142235 4.99943411 7.43513382 3.3125 10.1875 C1.5 11.25 1.5 11.25 -1.125 11 C-3.5 10.25 -3.5 10.25 -4.5 9.25 C-4.6875 5.8125 -4.6875 5.8125 -4.5 2.25 C-2.5 0.25 -2.5 0.25 0 0 Z " fill="#F9F9F9" transform="translate(244.5,433.75)"/>
<path d="M0 0 C3.05623277 2.09110663 3.86463014 3.29306849 4.5625 6.9375 C3.79395747 11.12178713 2.46194162 12.56927503 -1 15 C-4.6875 15 -4.6875 15 -8 14 C-10.48038907 10.2794164 -10.46337203 8.40203429 -10 4 C-7.26646839 -0.10029741 -4.80388991 -0.80064832 0 0 Z M-6.75 3.125 C-8.55091729 5.82637593 -8.33742066 7.82824583 -8 11 C-6.17528109 13.21896136 -6.17528109 13.21896136 -3.5625 13.375 C-0.90751699 13.23435754 -0.90751699 13.23435754 0.8125 11.3125 C2.20987139 8.59130308 2.47637094 7.01701597 2 4 C-1.19240645 1.87172903 -3.28774614 0.89926538 -6.75 3.125 Z " fill="#161616" transform="translate(169,412)"/>
<path d="M0 0 C3.4375 1 3.4375 1 5.375 2.6875 C6.79045627 5.76819895 6.99629958 7.64720251 6.4375 11 C4.0230817 13.62136844 2.35988403 14.79752546 -1.125 15.5625 C-3.5625 15 -3.5625 15 -5.875 12.875 C-7.85534835 9.50107319 -8.21704929 7.84547708 -7.5625 4 C-5.27647022 0.43379354 -4.27192374 0 0 0 Z M-5.5625 4 C-5.89552312 7.1304173 -6.03921956 9.17898298 -4.4375 11.9375 C-1.63579973 13.52513015 0.40735644 12.74070176 3.4375 12 C4.5327698 7.72854561 4.5327698 7.72854561 3.3125 3.625 C1.52049189 1.77718962 1.52049189 1.77718962 -1.125 1.625 C-3.73778109 1.78103864 -3.73778109 1.78103864 -5.5625 4 Z " fill="#181818" transform="translate(311.5625,422)"/>
<path d="M0 0 C3.42025316 3.42025316 3.95344801 7.71982025 4.125 12.4375 C4.08375 13.283125 4.0425 14.12875 4 15 C3.34 14.34 2.68 13.68 2 13 C2 11.68 2 10.36 2 9 C0.96359375 9.28875 -0.0728125 9.5775 -1.140625 9.875 C-2.51034396 10.25026547 -3.8801397 10.62525079 -5.25 11 C-5.93191406 11.19078125 -6.61382812 11.3815625 -7.31640625 11.578125 C-10.70600912 12.49957044 -13.45778976 13 -17 13 C-16.67 12.01 -16.34 11.02 -16 10 C-13.41796875 9.05078125 -13.41796875 9.05078125 -10.1875 8.3125 C-9.12917969 8.06113281 -8.07085937 7.80976563 -6.98046875 7.55078125 C-4 7 -4 7 0 7 C0 4.69 0 2.38 0 0 Z " fill="#282828" transform="translate(78,286)"/>
<path d="M0 0 C0.721875 0.103125 1.44375 0.20625 2.1875 0.3125 C2.9375 2.5 2.9375 2.5 3.1875 5.3125 C1.25 8.125 1.25 8.125 -0.8125 10.3125 C-3.69825819 9.91446439 -4.63439513 9.52240931 -6.5625 7.25 C-6.975 6.610625 -7.3875 5.97125 -7.8125 5.3125 C-3.50480769 0.38942308 -3.50480769 0.38942308 0 0 Z " fill="#EEEEEE" transform="translate(113.8125,91.6875)"/>
<path d="M0 0 C1.65 0.33 3.3 0.66 5 1 C4.25 7.625 4.25 7.625 2 11 C-1.65316671 9.75023244 -2.78065836 9.32901247 -5 6 C-3.35 4.02 -1.7 2.04 0 0 Z " fill="#F0F0F0" transform="translate(86,122)"/>
<path d="M0 0 C2.5393228 3.41831915 3.3636198 5.75776898 3 10 C1.35 10.33 -0.3 10.66 -2 11 C-3.65 9.02 -5.3 7.04 -7 5 C-2.25 0 -2.25 0 0 0 Z " fill="#F1F1F1" transform="translate(412,116)"/>
<path d="M0 0 C0.3125 2.3125 0.3125 2.3125 0 5 C-2.25 6.875 -2.25 6.875 -5 8 C-7.3125 7.6875 -7.3125 7.6875 -9 7 C-9.33 5.02 -9.66 3.04 -10 1 C-6.42181037 -1.33958553 -4.07775191 -0.9267618 0 0 Z " fill="#EEEEEE" transform="translate(192,48)"/>
<path d="M0 0 C1.32 0 2.64 0 4 0 C4 0.66 4 1.32 4 2 C2.68 2 1.36 2 0 2 C0 2.763125 0 3.52625 0 4.3125 C0 6.20833333 0 8.10416667 0 10 C-0.99 9.67 -1.98 9.34 -3 9 C-3.185625 10.3303125 -3.185625 10.3303125 -3.375 11.6875 C-3.94412736 14.70387502 -4.76614436 17.20326054 -6 20 C-6.66 20 -7.32 20 -8 20 C-7.7834375 18.73542969 -7.7834375 18.73542969 -7.5625 17.4453125 C-7.376875 16.34960938 -7.19125 15.25390625 -7 14.125 C-6.814375 13.03445313 -6.62875 11.94390625 -6.4375 10.8203125 C-5.94890292 8.14628036 -5.94890292 8.14628036 -6 6 C-5.01 6 -4.02 6 -3 6 C-2.814375 5.071875 -2.814375 5.071875 -2.625 4.125 C-2 2 -2 2 0 0 Z " fill="#1F1F1F" transform="translate(189,414)"/>
<path d="M0 0 C0 0.66 0 1.32 0 2 C-0.99 2.495 -0.99 2.495 -2 3 C-2.16687448 5.41645782 -2.16687448 5.41645782 -2 8 C-0.04366025 10.41121859 -0.04366025 10.41121859 3.625 10.125 C4.73875 10.08375 5.8525 10.0425 7 10 C7 7.36 7 4.72 7 2 C7.99 2.33 8.98 2.66 10 3 C9.52 9.36 9.52 9.36 7.375 12 C3.88418213 13.46981805 1.60851044 12.98413921 -2 12 C-4 10.375 -4 10.375 -5 8 C-4.8125 4.3125 -4.8125 4.3125 -4 1 C-2 0 -2 0 0 0 Z " fill="#202020" transform="translate(430,289)"/>
<path d="M0 0 C0.66 0 1.32 0 2 0 C1.814375 0.763125 1.62875 1.52625 1.4375 2.3125 C0.77180827 5.08967375 0.77180827 5.08967375 2 8 C0.9171875 8.0309375 0.9171875 8.0309375 -0.1875 8.0625 C-3.90646948 9.30215649 -4.88043867 11.25595446 -6.88671875 14.50390625 C-7.25410156 14.99761719 -7.62148437 15.49132812 -8 16 C-8.66 16 -9.32 16 -10 16 C-8.91824321 12.93502244 -7.71638038 10.58291233 -5.875 7.875 C-3.72686611 5.15325846 -3.72686611 5.15325846 -4 2 C-3.01 2 -2.02 2 -1 2 C-0.67 1.34 -0.34 0.68 0 0 Z " fill="#262626" transform="translate(141,391)"/>
<path d="M0 0 C2.3125 1.5 2.3125 1.5 4 4 C4.64968298 7.58769377 4.6784235 10.8216855 2.8125 14.0625 C0.26271335 15.38135516 -1.31746098 14.7975116 -4 14 C-3.360625 13.690625 -2.72125 13.38125 -2.0625 13.0625 C-0.06389179 12.1654837 -0.06389179 12.1654837 1 11 C1.25005386 8.04182893 1.25005386 8.04182893 1 5 C0.34 4.34 -0.32 3.68 -1 3 C-4.09926819 3.32198966 -4.09926819 3.32198966 -7 4 C-7 3.01 -7 2.02 -7 1 C-4.4086487 -0.29567565 -2.87704151 -0.34250494 0 0 Z " fill="#262626" transform="translate(290,428)"/>
<path d="M0 0 C0.763125 0.350625 1.52625 0.70125 2.3125 1.0625 C5.04759379 2.32360884 5.04759379 2.32360884 8 1 C7.71125 1.680625 7.4225 2.36125 7.125 3.0625 C6.97319607 6.62989238 7.63151284 7.10609049 9.9375 9.6875 C10.50339844 10.26886719 11.06929688 10.85023438 11.65234375 11.44921875 C13 13 13 13 13 15 C9.20620942 13.50958227 7.31656242 11.30937488 5 8 C5 7.34 5 6.68 5 6 C3.68 6.33 2.36 6.66 1 7 C0.67 4.69 0.34 2.38 0 0 Z " fill="#232323" transform="translate(358,390)"/>
<path d="M0 0 C0 0.66 0 1.32 0 2 C-0.96679688 2.32097656 -0.96679688 2.32097656 -1.953125 2.6484375 C-4.27839115 3.8473523 -4.27839115 3.8473523 -4.609375 6.6015625 C-4.65578125 7.59929687 -4.7021875 8.59703125 -4.75 9.625 C-4.80671875 10.62789063 -4.8634375 11.63078125 -4.921875 12.6640625 C-4.94765625 13.43492187 -4.9734375 14.20578125 -5 15 C-5.99 15 -6.98 15 -8 15 C-8 10.38 -8 5.76 -8 1 C-3 0 -3 0 0 0 Z " fill="#373737" transform="translate(270,431)"/>
<path d="M0 0 C0.66 0 1.32 0 2 0 C1.46323088 5.0261109 -0.94418501 8.62239409 -3.5625 12.8125 C-3.98724609 13.50537109 -4.41199219 14.19824219 -4.84960938 14.91210938 C-5.89309456 16.61216951 -6.94565296 18.30665476 -8 20 C-9.25541557 16.23375329 -8.37061958 14.62811066 -7 11 C-6.34 11 -5.68 11 -5 11 C-4.731875 10.29875 -4.46375 9.5975 -4.1875 8.875 C-2.9318551 5.8350176 -1.49764877 2.9272226 0 0 Z " fill="#1C1C1C" transform="translate(116,365)"/>
<path d="M0 0 C0 0.66 0 1.32 0 2 C-2.97 2.66 -5.94 3.32 -9 4 C-9 4.66 -9 5.32 -9 6 C-14.445 7.485 -14.445 7.485 -20 9 C-19.67 8.01 -19.34 7.02 -19 6 C-16.55904728 4.78982923 -14.22356988 3.77331225 -11.6875 2.8125 C-11.01009766 2.53986328 -10.33269531 2.26722656 -9.63476562 1.98632812 C-6.17582054 0.63723811 -3.75980229 0 0 0 Z " fill="#141414" transform="translate(87,309)"/>
<path d="M0 0 C0 0.66 0 1.32 0 2 C-0.804375 2.226875 -1.60875 2.45375 -2.4375 2.6875 C-5.19605746 3.75355159 -5.19605746 3.75355159 -6 6.375 C-6 9.61000665 -5.06836749 10.60069371 -3 13 C-3 13.66 -3 14.32 -3 15 C-6.16115776 13.63016497 -6.9927092 13.0109362 -9 10 C-8.81676549 6.57962245 -8.62838458 3.97399609 -6.75 1.0625 C-4.41628148 -0.35440053 -2.67863922 -0.21718696 0 0 Z " fill="#0E0E0E" transform="translate(403,343)"/>
<path d="M0 0 C0.66 0.33 1.32 0.66 2 1 C1.34 1.66 0.68 2.32 0 3 C-0.35158182 7.04319095 0.06045884 9.48458165 2 13 C2 13.99 2 14.98 2 16 C1.34 16 0.68 16 0 16 C-0.84069415 14.39967863 -1.67231505 12.79458829 -2.5 11.1875 C-3.19609375 9.84751953 -3.19609375 9.84751953 -3.90625 8.48046875 C-5 6 -5 6 -5 3 C-4.360625 2.690625 -3.72125 2.38125 -3.0625 2.0625 C-1.06389179 1.1654837 -1.06389179 1.1654837 0 0 Z " fill="#212121" transform="translate(330,413)"/>
<path d="M0 0 C4.63994911 1.07713104 4.63994911 1.07713104 6.5 3.8125 C6.5 4.4725 6.5 5.1325 6.5 5.8125 C5.943125 5.503125 5.38625 5.19375 4.8125 4.875 C2.24525463 3.69545483 0.3341528 2.95420764 -2.5 2.8125 C-4.7085766 4.68758162 -4.7085766 4.68758162 -6.5 6.8125 C-7.16 6.8125 -7.82 6.8125 -8.5 6.8125 C-6.82001137 1.90176401 -5.6140613 -0.30075328 0 0 Z " fill="#252525" transform="translate(221.5,423.1875)"/>
<path d="M0 0 C2.672336 3.56311466 3.77263971 5.84585747 5 10 C2.69 10 0.38 10 -2 10 C-1.34 6.7 -0.68 3.4 0 0 Z " fill="#E8E8E8" transform="translate(225,46)"/>
<path d="M0 0 C0.33 0.99 0.66 1.98 1 3 C2.65 3.33 4.3 3.66 6 4 C5.67 4.66 5.34 5.32 5 6 C4.319375 5.71125 3.63875 5.4225 2.9375 5.125 C-0.62989238 4.97319607 -1.10609049 5.63151284 -3.6875 7.9375 C-4.55955078 8.78634766 -4.55955078 8.78634766 -5.44921875 9.65234375 C-7 11 -7 11 -9 11 C-7.59155282 7.78475695 -5.89655214 5.67816132 -3.375 3.25 C-2.74335937 2.63640625 -2.11171875 2.0228125 -1.4609375 1.390625 C-0.73777344 0.70226562 -0.73777344 0.70226562 0 0 Z " fill="#171717" transform="translate(125,383)"/>
<path d="M0 0 C-1.69779622 1.13186415 -3.41585237 2.23762993 -5.1875 3.25 C-7.32607596 4.93004227 -7.32607596 4.93004227 -7.25 8 C-7.1675 8.99 -7.085 9.98 -7 11 C-7 11.99 -7 12.98 -7 14 C-8.5 12.9375 -8.5 12.9375 -10 11 C-10.50030235 7.06905293 -10.5996142 4.8994213 -8.375 1.5625 C-5.397402 -0.39644605 -3.49644963 -0.31785906 0 0 Z " fill="#222222" transform="translate(169,412)"/>
<path d="M0 0 C2.625 0.375 2.625 0.375 5 1 C3.02 3.31 1.04 5.62 -1 8 C-1.66 7.67 -2.32 7.34 -3 7 C-2.25 2.25 -2.25 2.25 0 0 Z " fill="#E1E1E1" transform="translate(379,380)"/>
<path d="M0 0 C-1.32 2.31 -2.64 4.62 -4 7 C-5.65 5.35 -7.3 3.7 -9 2 C-3.375 -1.125 -3.375 -1.125 0 0 Z " fill="#EAEAEA" transform="translate(115,369)"/>
<path d="M0 0 C2.86724686 0.57344937 3.8614515 0.8614515 6 3 C5.625 5.625 5.625 5.625 5 8 C2 7 2 7 0.8125 5.125 C0 3 0 3 0 0 Z " fill="#E9E9E9" transform="translate(85,336)"/>
<path d="M0 0 C1.32 0 2.64 0 4 0 C4.33 0.99 4.66 1.98 5 3 C4.21625 3.45375 3.4325 3.9075 2.625 4.375 C-0.03698031 5.88428742 -0.03698031 5.88428742 -2 8 C-4.625 8.125 -4.625 8.125 -7 8 C-7 7.34 -7 6.68 -7 6 C-5.5459375 5.62875 -5.5459375 5.62875 -4.0625 5.25 C-2.5465625 4.63125 -2.5465625 4.63125 -1 4 C-0.03122943 1.96756452 -0.03122943 1.96756452 0 0 Z " fill="#2C2C2C" transform="translate(354,411)"/>
<path d="M0 0 C-1.95216435 1.95216435 -3.53199953 2.84826645 -6 4 C-6 6.31 -6 8.62 -6 11 C-6.99 11.495 -6.99 11.495 -8 12 C-9.42041821 9.15916359 -9.31452272 7.14522722 -9 4 C-6.36160394 0.28670185 -4.49495424 -0.49943936 0 0 Z " fill="#161616" transform="translate(313,422)"/>
<path d="M0 0 C1.79236067 0.47656412 3.58386897 0.95633498 5.375 1.4375 C6.37273437 1.70433594 7.37046875 1.97117187 8.3984375 2.24609375 C11 3 11 3 13 4 C13 4.66 13 5.32 13 6 C11.58194169 5.71517632 10.16559621 5.42181856 8.75 5.125 C7.96109375 4.96257812 7.1721875 4.80015625 6.359375 4.6328125 C4.03168856 4.00849925 2.10968048 3.15161458 0 2 C0 1.34 0 0.68 0 0 Z " fill="#242424" transform="translate(420,311)"/>
<path d="M0 0 C0.99 0 1.98 0 3 0 C3.33 1.65 3.66 3.3 4 5 C2.35 5.33 0.7 5.66 -1 6 C-1.625 4.125 -1.625 4.125 -2 2 C-1.34 1.34 -0.68 0.68 0 0 Z " fill="#212121" transform="translate(59,268)"/>
<path d="M0 0 C2.875 0.3125 2.875 0.3125 6 1 C8.29013653 4.4352048 8.17842973 5.985331 8 10 C7.34 10 6.68 10 6 10 C5.62875 8.3603125 5.62875 8.3603125 5.25 6.6875 C3.97997149 2.94091591 3.34243648 1.89404734 0 0 Z " fill="#121212" transform="translate(243,432)"/>
<path d="M0 0 C0.66 0.33 1.32 0.66 2 1 C1.67 2.32 1.34 3.64 1 5 C-0.625 5.6875 -0.625 5.6875 -3 6 C-6.25 4.5625 -6.25 4.5625 -9 3 C-8.34 2.34 -7.68 1.68 -7 1 C-3.535 2.485 -3.535 2.485 0 4 C0 2.68 0 1.36 0 0 Z " fill="#303030" transform="translate(412,329)"/>
<path d="M0 0 C1.98 0.495 1.98 0.495 4 1 C4 2.32 4 3.64 4 5 C2.35 5 0.7 5 -1 5 C-0.67 3.35 -0.34 1.7 0 0 Z " fill="#080808" transform="translate(439,268)"/>
<path d="M0 0 C2.375 0.3125 2.375 0.3125 5 1 C7.29013653 4.4352048 7.17842973 5.985331 7 10 C6.67 10 6.34 10 6 10 C6 8.35 6 6.7 6 5 C5.34 5 4.68 5 4 5 C2.61767557 3.37373596 1.28062485 1.7074998 0 0 Z " fill="#292929" transform="translate(311,423)"/>
<path d="M0 0 C1.36125 0.37125 1.36125 0.37125 2.75 0.75 C0.3584939 3.1415061 -0.96447284 3.26919115 -4.25 3.75 C-5.24 3.75 -6.23 3.75 -7.25 3.75 C-4.05 -0.31153846 -4.05 -0.31153846 0 0 Z " fill="#2C2C2C" transform="translate(382.25,378.25)"/>
<path d="M0 0 C0.66 0 1.32 0 2 0 C1.5206753 4.31392226 0.2542015 6.16569547 -3 9 C-2.44271087 5.65626525 -1.64826111 2.96687001 0 0 Z " fill="#121212" transform="translate(116,365)"/>
<path d="M0 0 C0 0.99 0 1.98 0 3 C-2.66666667 3 -5.33333333 3 -8 3 C-5.53387212 -0.1151089 -3.89156016 -0.31553191 0 0 Z " fill="#333333" transform="translate(290,428)"/>
<path d="M0 0 C4.455 0.99 4.455 0.99 9 2 C8.67 2.66 8.34 3.32 8 4 C5.69 3.67 3.38 3.34 1 3 C0.67 2.01 0.34 1.02 0 0 Z " fill="#1A1A1A" transform="translate(427,298)"/>
<path d="M0 0 C1.32 0.33 2.64 0.66 4 1 C3.67 3.31 3.34 5.62 3 8 C0.4345406 5.4345406 0.45953913 3.52313332 0 0 Z " fill="#111111" transform="translate(279,430)"/>
<path d="M0 0 C0.66 0 1.32 0 2 0 C2.25 2.3125 2.25 2.3125 2 5 C0 6.8125 0 6.8125 -2 8 C-2.33 7.34 -2.66 6.68 -3 6 C-2.34 6 -1.68 6 -1 6 C-0.67 4.02 -0.34 2.04 0 0 Z " fill="#262626" transform="translate(387,384)"/>
<path d="M0 0 C0 0.66 0 1.32 0 2 C-4.625 4.125 -4.625 4.125 -8 3 C-5.53387212 -0.1151089 -3.89156016 -0.31553191 0 0 Z " fill="#1D1D1D" transform="translate(403,343)"/>
<path d="M0 0 C0 0.66 0 1.32 0 2 C-2.31 2.66 -4.62 3.32 -7 4 C-7.66 3.34 -8.32 2.68 -9 2 C-5.62902617 0.50178941 -3.79557881 0 0 0 Z " fill="#272727" transform="translate(87,309)"/>
</svg>
